<?xml version="1.0" encoding="UTF-8" standalone="no"?>
<!-- Created with Inkscape (http://www.inkscape.org/) -->

<svg
   xmlns:dc="http://purl.org/dc/elements/1.1/"
   xmlns:cc="http://creativecommons.org/ns#"
   xmlns:rdf="http://www.w3.org/1999/02/22-rdf-syntax-ns#"
   xmlns:svg="http://www.w3.org/2000/svg"
   xmlns="http://www.w3.org/2000/svg"
   xmlns:xlink="http://www.w3.org/1999/xlink"
   xmlns:sodipodi="http://sodipodi.sourceforge.net/DTD/sodipodi-0.dtd"
   xmlns:inkscape="http://www.inkscape.org/namespaces/inkscape"
   width="90"
   height="90"
   id="svg2"
   version="1.1"
   inkscape:version="0.47 r22583"
   sodipodi:docname="steering-wheel.svg">
  <defs
     id="defs4">
    <linearGradient
       inkscape:collect="always"
       id="linearGradient3780">
      <stop
         style="stop-color:#f5f5f5;stop-opacity:1;"
         offset="0"
         id="stop3782" />
      <stop
         style="stop-color:#f5f5f5;stop-opacity:0;"
         offset="1"
         id="stop3784" />
    </linearGradient>
    <linearGradient
       inkscape:collect="always"
       id="linearGradient3709">
      <stop
         style="stop-color:#000000;stop-opacity:1;"
         offset="0"
         id="stop3711" />
      <stop
         style="stop-color:#000000;stop-opacity:0;"
         offset="1"
         id="stop3713" />
    </linearGradient>
    <inkscape:path-effect
       effect="spiro"
       id="path-effect3632"
       is_visible="true" />
    <inkscape:path-effect
       effect="spiro"
       id="path-effect3628"
       is_visible="true" />
    <inkscape:perspective
       sodipodi:type="inkscape:persp3d"
       inkscape:vp_x="0 : 526.18109 : 1"
       inkscape:vp_y="0 : 1000 : 0"
       inkscape:vp_z="744.09448 : 526.18109 : 1"
       inkscape:persp3d-origin="372.04724 : 350.78739 : 1"
       id="perspective10" />
    <inkscape:perspective
       id="perspective2824"
       inkscape:persp3d-origin="0.5 : 0.33333333 : 1"
       inkscape:vp_z="1 : 0.5 : 1"
       inkscape:vp_y="0 : 1000 : 0"
       inkscape:vp_x="0 : 0.5 : 1"
       sodipodi:type="inkscape:persp3d" />
    <linearGradient
       inkscape:collect="always"
       xlink:href="#linearGradient3709"
       id="linearGradient3715"
       x1="245.55103"
       y1="592.60706"
       x2="377.65598"
       y2="707.54584"
       gradientUnits="userSpaceOnUse"
       gradientTransform="translate(-231.27377,386.76099)" />
    <inkscape:perspective
       id="perspective3733"
       inkscape:persp3d-origin="0.5 : 0.33333333 : 1"
       inkscape:vp_z="1 : 0.5 : 1"
       inkscape:vp_y="0 : 1000 : 0"
       inkscape:vp_x="0 : 0.5 : 1"
       sodipodi:type="inkscape:persp3d" />
    <linearGradient
       inkscape:collect="always"
       xlink:href="#linearGradient3780"
       id="linearGradient3786"
       x1="70.851067"
       y1="984.57495"
       x2="76.82048"
       y2="1014.0643"
       gradientUnits="userSpaceOnUse" />
    <filter
       inkscape:collect="always"
       id="filter3802">
      <feGaussianBlur
         inkscape:collect="always"
         stdDeviation="0.59073866"
         id="feGaussianBlur3804" />
    </filter>
    <filter
       inkscape:collect="always"
       id="filter3830"
       x="-0.17228729"
       width="1.3445746"
       y="-2.4172692"
       height="5.8345383">
      <feGaussianBlur
         inkscape:collect="always"
         stdDeviation="3.3678499"
         id="feGaussianBlur3832" />
    </filter>
    <filter
       inkscape:collect="always"
       id="filter3844"
       x="-0.85192121"
       width="2.7038424"
       y="-0.4932176"
       height="1.9864352">
      <feGaussianBlur
         inkscape:collect="always"
         stdDeviation="1.4953936"
         id="feGaussianBlur3846" />
    </filter>
    <filter
       inkscape:collect="always"
       id="filter3876">
      <feGaussianBlur
         inkscape:collect="always"
         stdDeviation="0.60982078"
         id="feGaussianBlur3878" />
    </filter>
  </defs>
  <sodipodi:namedview
     id="base"
     pagecolor="#ffffff"
     bordercolor="#666666"
     borderopacity="1.0"
     inkscape:pageopacity="0.0"
     inkscape:pageshadow="2"
     inkscape:zoom="5.2222222"
     inkscape:cx="45"
     inkscape:cy="45"
     inkscape:document-units="px"
     inkscape:current-layer="layer1"
     showgrid="false"
     inkscape:window-width="1280"
     inkscape:window-height="712"
     inkscape:window-x="-4"
     inkscape:window-y="-4"
     inkscape:window-maximized="1" />
  <metadata
     id="metadata7">
    <rdf:RDF>
      <cc:Work
         rdf:about="">
        <dc:format>image/svg+xml</dc:format>
        <dc:type
           rdf:resource="http://purl.org/dc/dcmitype/StillImage" />
        <dc:title></dc:title>
      </cc:Work>
    </rdf:RDF>
  </metadata>
  <g
     inkscape:label="Layer 1"
     inkscape:groupmode="layer"
     id="layer1"
     transform="translate(0,-962.36218)">
    <g
       id="g3880"
       transform="translate(-2.6808511,8.6170213)">
      <path
         transform="matrix(1.0000948,0,0,0.95147753,-0.00441351,49.569402)"
         style="fill:#808080;fill-opacity:1;stroke:#291919;stroke-width:0.2;stroke-linecap:butt;stroke-linejoin:miter;stroke-miterlimit:4;stroke-opacity:1;stroke-dasharray:none;filter:url(#filter3876)"
         d="m 22.787234,992.91537 c 17.89364,-9.12776 32.775317,-4.70169 47.680851,-0.38298 0.930782,3.31915 0.532902,6.6383 -0.574468,9.95741 0,0 -9.522346,-4.63904 -13.404255,-2.2978 -5.634867,3.3984 -5.361703,19.3404 -5.361703,19.3404 -3.448617,0.5654 -7.555076,1.0969 -11.489361,-0.766 0,0 1.19092,-13.6545 -3.446809,-17.234 -3.441955,-2.65659 -13.021276,0.766 -13.021276,0.766 -0.730895,-3.12771 -1.628155,-6.25537 -0.382979,-9.38303 z"
         id="path3866"
         sodipodi:nodetypes="cccsccscc" />
      <path
         id="path3741"
         d="m 46.904305,968.36033 c -16.19599,0 -29.312408,13.11641 -29.312408,29.31241 0,16.19596 13.116418,29.34356 29.312408,29.34356 16.195991,0 29.343559,-13.1476 29.343559,-29.34356 0,-16.196 -13.147568,-29.31241 -29.343559,-29.31241 z m -0.467254,4.89059 c 13.496658,0 24.421815,10.95631 24.421815,24.45297 0,13.49661 -10.925157,24.42181 -24.421815,24.42181 -13.496658,0 -24.452965,-10.9252 -24.452965,-24.42181 0,-13.49666 10.956307,-24.45297 24.452965,-24.45297 z"
         style="opacity:0.72105264;fill:#000000;fill-opacity:1;fill-rule:evenodd;stroke:#100e0e;stroke-width:1.15765929;stroke-linecap:round;stroke-linejoin:round;stroke-miterlimit:0;stroke-opacity:1;stroke-dasharray:none;stroke-dashoffset:0" />
      <path
         sodipodi:nodetypes="cccsccscc"
         transform="translate(0,962.36218)"
         id="path3744"
         d="m 22.787234,32.553191 c 17.89364,-9.127762 32.775317,-4.701691 47.680851,-0.382978 0.930782,3.319149 0.532902,6.638298 -0.574468,9.957447 0,0 -9.522346,-4.639081 -13.404255,-2.297873 -5.634867,3.398429 -5.361703,19.340426 -5.361703,19.340426 -3.448617,0.565425 -7.555076,1.096956 -11.489361,-0.765958 0,0 1.19092,-13.654534 -3.446809,-17.234042 -3.441955,-2.656582 -13.021276,0.765957 -13.021276,0.765957 -0.730895,-3.12766 -1.628155,-6.255319 -0.382979,-9.382979 z"
         style="fill:#a52a2a;fill-opacity:1;stroke:#640f0f;stroke-width:0.2;stroke-linecap:butt;stroke-linejoin:miter;stroke-miterlimit:4;stroke-opacity:1;stroke-dasharray:none" />
      <path
         transform="translate(0,962.36218)"
         sodipodi:nodetypes="cc"
         id="path3746"
         d="m 26.425532,40.595745 c 1.119097,-5.023483 2.395334,-9.33253 5.553191,-11.297873"
         style="fill:none;stroke:#470606;stroke-width:0.40000001;stroke-linecap:butt;stroke-linejoin:miter;stroke-miterlimit:4;stroke-opacity:1;stroke-dasharray:none" />
      <path
         sodipodi:nodetypes="cc"
         transform="translate(0,962.36218)"
         id="path3750"
         d="m 40.021277,52.659574 c 3.574468,1.505137 7.148936,2.414807 10.723404,0.382979"
         style="fill:none;stroke:#582525;stroke-width:0.30000001;stroke-linecap:butt;stroke-linejoin:miter;stroke-miterlimit:4;stroke-opacity:1;stroke-dasharray:none" />
      <path
         transform="matrix(0.89757767,0,0,0.90309144,5.445094,965.79954)"
         d="m 76.404255,34.372341 c 0,16.233647 -13.28857,29.393618 -29.680851,29.393618 -16.392281,0 -29.680851,-13.159971 -29.680851,-29.393618 0,-16.233647 13.28857,-29.3936175 29.680851,-29.3936175 16.392281,0 29.680851,13.1599705 29.680851,29.3936175 z"
         sodipodi:ry="29.393618"
         sodipodi:rx="29.680851"
         sodipodi:cy="34.372341"
         sodipodi:cx="46.723404"
         id="path3796"
         style="opacity:0.72105264;fill:#948e8e;fill-opacity:0;fill-rule:evenodd;stroke:#b1adad;stroke-width:1.62962127;stroke-linecap:round;stroke-linejoin:round;stroke-miterlimit:0;stroke-opacity:1;stroke-dasharray:none;stroke-dashoffset:0;filter:url(#filter3802)"
         sodipodi:type="arc" />
      <path
         sodipodi:nodetypes="cc"
         transform="translate(0,962.36218)"
         id="path3828"
         d="m 22.787234,36.382979 c 16.616911,-5.609306 31.799459,-3.090551 46.914894,-0.19149"
         style="fill:none;stroke:#e6d6d6;stroke-width:3;stroke-linecap:butt;stroke-linejoin:miter;stroke-miterlimit:4;stroke-opacity:1;stroke-dasharray:none;filter:url(#filter3830)" />
      <path
         transform="translate(0,962.36218)"
         id="path3834"
         d="m 42.510638,44.234043 1.531915,7.276595 2.680851,-7.276595"
         style="opacity:0.47368421;fill:none;stroke:#ece0e0;stroke-width:1px;stroke-linecap:butt;stroke-linejoin:miter;stroke-opacity:1;filter:url(#filter3844)" />
      <path
         transform="translate(-0.76595749,962.93665)"
         d="m 51.893616,36 c 0,2.53816 -2.357649,4.595745 -5.265957,4.595745 -2.908308,0 -5.265958,-2.057585 -5.265958,-4.595745 0,-2.53816 2.35765,-4.595745 5.265958,-4.595745 2.908308,0 5.265957,2.057585 5.265957,4.595745 z"
         sodipodi:ry="4.5957446"
         sodipodi:rx="5.2659574"
         sodipodi:cy="36"
         sodipodi:cx="46.627659"
         id="path3858"
         style="fill:#cd5c5c;fill-opacity:1;fill-rule:evenodd;stroke:#682d2d;stroke-width:0.5;stroke-linecap:round;stroke-linejoin:round;stroke-miterlimit:0;stroke-opacity:1;stroke-dasharray:none;stroke-dashoffset:0"
         sodipodi:type="arc" />
      <path
         style="opacity:0.29473685;fill:none;stroke:#470606;stroke-width:0.40000001;stroke-linecap:butt;stroke-linejoin:miter;stroke-miterlimit:4;stroke-opacity:1;stroke-dasharray:none"
         d="m 26.893617,1002.9579 c 1.119097,-5.02346 2.395334,-9.3325 5.553191,-11.29785"
         id="path3860"
         sodipodi:nodetypes="cc" />
      <path
         style="fill:none;stroke:#6c4444;stroke-width:0.40000001;stroke-linecap:butt;stroke-linejoin:miter;stroke-miterlimit:4;stroke-opacity:1;stroke-dasharray:none"
         d="m 66.531914,1003.3409 c -1.119097,-5.02348 -2.395334,-9.33252 -5.553191,-11.29787"
         id="path3862"
         sodipodi:nodetypes="cc" />
      <path
         sodipodi:nodetypes="cc"
         id="path3864"
         d="m 66.063829,1003.3409 c -1.119097,-5.02348 -2.395334,-9.33252 -5.553191,-11.29787"
         style="opacity:0.29473685;fill:none;stroke:#470606;stroke-width:0.40000001;stroke-linecap:butt;stroke-linejoin:miter;stroke-miterlimit:4;stroke-opacity:1;stroke-dasharray:none" />
    </g>
  </g>
</svg>
