<?xml version="1.0" encoding="UTF-8" standalone="no"?>
<!-- Created with Inkscape (http://www.inkscape.org/) -->
<svg
   xmlns:dc="http://purl.org/dc/elements/1.1/"
   xmlns:cc="http://creativecommons.org/ns#"
   xmlns:rdf="http://www.w3.org/1999/02/22-rdf-syntax-ns#"
   xmlns:svg="http://www.w3.org/2000/svg"
   xmlns="http://www.w3.org/2000/svg"
   xmlns:xlink="http://www.w3.org/1999/xlink"
   xmlns:sodipodi="http://sodipodi.sourceforge.net/DTD/sodipodi-0.dtd"
   xmlns:inkscape="http://www.inkscape.org/namespaces/inkscape"
   width="74.321663"
   height="102.7079"
   id="svg6244"
   sodipodi:version="0.32"
   inkscape:version="0.46"
   version="1.0"
   sodipodi:docname="wheel.svg"
   inkscape:output_extension="org.inkscape.output.svg.inkscape">
  <defs
     id="defs6246">
    <linearGradient
       inkscape:collect="always"
       xlink:href="#linearGradient5108"
       id="linearGradient7871"
       gradientUnits="userSpaceOnUse"
       x1="557.37134"
       y1="375.55225"
       x2="557.50366"
       y2="287.06989" />
    <linearGradient
       inkscape:collect="always"
       xlink:href="#linearGradient5102"
       id="linearGradient7869"
       gradientUnits="userSpaceOnUse"
       x1="557.37134"
       y1="375.55225"
       x2="557.37134"
       y2="319.00455" />
    <linearGradient
       inkscape:collect="always"
       xlink:href="#linearGradient5108"
       id="linearGradient7867"
       gradientUnits="userSpaceOnUse"
       x1="557.37134"
       y1="375.55225"
       x2="557.50366"
       y2="287.06989" />
    <linearGradient
       inkscape:collect="always"
       xlink:href="#linearGradient5102"
       id="linearGradient7865"
       gradientUnits="userSpaceOnUse"
       x1="557.37134"
       y1="375.55225"
       x2="557.37134"
       y2="319.00455" />
    <linearGradient
       inkscape:collect="always"
       xlink:href="#linearGradient5108"
       id="linearGradient7863"
       gradientUnits="userSpaceOnUse"
       x1="557.37134"
       y1="375.55225"
       x2="557.50366"
       y2="287.06989" />
    <linearGradient
       inkscape:collect="always"
       xlink:href="#linearGradient5102"
       id="linearGradient7861"
       gradientUnits="userSpaceOnUse"
       x1="557.37134"
       y1="375.55225"
       x2="557.37134"
       y2="319.00455" />
    <linearGradient
       inkscape:collect="always"
       xlink:href="#linearGradient5108"
       id="linearGradient7859"
       gradientUnits="userSpaceOnUse"
       x1="557.37134"
       y1="375.55225"
       x2="557.50366"
       y2="287.06989" />
    <linearGradient
       inkscape:collect="always"
       xlink:href="#linearGradient5102"
       id="linearGradient7857"
       gradientUnits="userSpaceOnUse"
       x1="557.37134"
       y1="375.55225"
       x2="557.37134"
       y2="319.00455" />
    <linearGradient
       inkscape:collect="always"
       xlink:href="#linearGradient5108"
       id="linearGradient7855"
       gradientUnits="userSpaceOnUse"
       x1="557.37134"
       y1="375.55225"
       x2="557.50366"
       y2="287.06989" />
    <linearGradient
       inkscape:collect="always"
       xlink:href="#linearGradient5102"
       id="linearGradient7853"
       gradientUnits="userSpaceOnUse"
       x1="557.37134"
       y1="375.55225"
       x2="557.37134"
       y2="319.00455" />
    <linearGradient
       inkscape:collect="always"
       xlink:href="#linearGradient5108"
       id="linearGradient7851"
       gradientUnits="userSpaceOnUse"
       x1="557.37134"
       y1="375.55225"
       x2="557.50366"
       y2="287.06989" />
    <linearGradient
       inkscape:collect="always"
       xlink:href="#linearGradient5102"
       id="linearGradient7849"
       gradientUnits="userSpaceOnUse"
       x1="557.37134"
       y1="375.55225"
       x2="557.37134"
       y2="319.00455" />
    <linearGradient
       inkscape:collect="always"
       xlink:href="#linearGradient5108"
       id="linearGradient7847"
       gradientUnits="userSpaceOnUse"
       x1="557.37134"
       y1="375.55225"
       x2="557.50366"
       y2="287.06989" />
    <linearGradient
       inkscape:collect="always"
       xlink:href="#linearGradient5102"
       id="linearGradient7845"
       gradientUnits="userSpaceOnUse"
       x1="557.37134"
       y1="375.55225"
       x2="557.37134"
       y2="319.00455" />
    <linearGradient
       inkscape:collect="always"
       xlink:href="#linearGradient5108"
       id="linearGradient7843"
       gradientUnits="userSpaceOnUse"
       x1="557.37134"
       y1="375.55225"
       x2="557.50366"
       y2="287.06989" />
    <linearGradient
       inkscape:collect="always"
       xlink:href="#linearGradient5102"
       id="linearGradient7841"
       gradientUnits="userSpaceOnUse"
       x1="557.37134"
       y1="375.55225"
       x2="557.37134"
       y2="319.00455" />
    <linearGradient
       inkscape:collect="always"
       xlink:href="#linearGradient5108"
       id="linearGradient7839"
       gradientUnits="userSpaceOnUse"
       x1="557.37134"
       y1="375.55225"
       x2="557.50366"
       y2="287.06989" />
    <linearGradient
       inkscape:collect="always"
       xlink:href="#linearGradient5102"
       id="linearGradient7837"
       gradientUnits="userSpaceOnUse"
       x1="557.37134"
       y1="375.55225"
       x2="557.37134"
       y2="319.00455" />
    <linearGradient
       inkscape:collect="always"
       xlink:href="#linearGradient5108"
       id="linearGradient7835"
       gradientUnits="userSpaceOnUse"
       x1="557.37134"
       y1="375.55225"
       x2="557.50366"
       y2="287.06989" />
    <linearGradient
       inkscape:collect="always"
       xlink:href="#linearGradient5102"
       id="linearGradient7833"
       gradientUnits="userSpaceOnUse"
       x1="557.37134"
       y1="375.55225"
       x2="557.37134"
       y2="319.00455" />
    <linearGradient
       inkscape:collect="always"
       xlink:href="#linearGradient5108"
       id="linearGradient7831"
       gradientUnits="userSpaceOnUse"
       x1="557.37134"
       y1="375.55225"
       x2="557.50366"
       y2="287.06989" />
    <linearGradient
       inkscape:collect="always"
       xlink:href="#linearGradient5102"
       id="linearGradient7829"
       gradientUnits="userSpaceOnUse"
       x1="557.37134"
       y1="375.55225"
       x2="557.37134"
       y2="319.00455" />
    <linearGradient
       inkscape:collect="always"
       xlink:href="#linearGradient5108"
       id="linearGradient7827"
       gradientUnits="userSpaceOnUse"
       x1="557.37134"
       y1="375.55225"
       x2="557.50366"
       y2="287.06989" />
    <linearGradient
       inkscape:collect="always"
       xlink:href="#linearGradient5102"
       id="linearGradient7825"
       gradientUnits="userSpaceOnUse"
       x1="557.37134"
       y1="375.55225"
       x2="557.37134"
       y2="319.00455" />
    <filter
       inkscape:collect="always"
       id="filter5120">
      <feGaussianBlur
         inkscape:collect="always"
         stdDeviation="0.493774"
         id="feGaussianBlur5122" />
    </filter>
    <linearGradient
       inkscape:collect="always"
       id="linearGradient5108">
      <stop
         style="stop-color:#000000;stop-opacity:1;"
         offset="0"
         id="stop5110" />
      <stop
         style="stop-color:#000000;stop-opacity:0;"
         offset="1"
         id="stop5112" />
    </linearGradient>
    <linearGradient
       inkscape:collect="always"
       xlink:href="#linearGradient5108"
       id="linearGradient7875"
       gradientUnits="userSpaceOnUse"
       x1="557.37134"
       y1="375.55225"
       x2="557.50366"
       y2="287.06989" />
    <linearGradient
       id="linearGradient5102"
       inkscape:collect="always">
      <stop
         id="stop5104"
         offset="0"
         style="stop-color:#4d4d4d;stop-opacity:1" />
      <stop
         id="stop5106"
         offset="1"
         style="stop-color:#ffffff;stop-opacity:0" />
    </linearGradient>
    <linearGradient
       inkscape:collect="always"
       xlink:href="#linearGradient5102"
       id="linearGradient7873"
       gradientUnits="userSpaceOnUse"
       x1="557.37134"
       y1="375.55225"
       x2="557.37134"
       y2="319.00455" />
    <radialGradient
       inkscape:collect="always"
       xlink:href="#linearGradient3736"
       id="radialGradient5054"
       gradientUnits="userSpaceOnUse"
       gradientTransform="matrix(0.9124349,-0.7311154,0.4327251,0.5400429,-96.838899,561.67627)"
       cx="557.00433"
       cy="342.64487"
       fx="557.00433"
       fy="342.64487"
       r="16.192106" />
    <radialGradient
       inkscape:collect="always"
       xlink:href="#linearGradient3736"
       id="radialGradient5052"
       gradientUnits="userSpaceOnUse"
       gradientTransform="matrix(0.9124349,-0.7311154,0.4327251,0.5400429,-96.838899,561.67627)"
       cx="557.00433"
       cy="342.64487"
       fx="557.00433"
       fy="342.64487"
       r="16.192106" />
    <radialGradient
       inkscape:collect="always"
       xlink:href="#linearGradient3736"
       id="radialGradient5050"
       gradientUnits="userSpaceOnUse"
       gradientTransform="matrix(0.9124349,-0.7311154,0.4327251,0.5400429,-96.838899,561.67627)"
       cx="557.00433"
       cy="342.64487"
       fx="557.00433"
       fy="342.64487"
       r="16.192106" />
    <radialGradient
       inkscape:collect="always"
       xlink:href="#linearGradient3736"
       id="radialGradient5048"
       gradientUnits="userSpaceOnUse"
       gradientTransform="matrix(0.9124349,-0.7311154,0.4327251,0.5400429,-96.838899,561.67627)"
       cx="557.00433"
       cy="342.64487"
       fx="557.00433"
       fy="342.64487"
       r="16.192106" />
    <linearGradient
       inkscape:collect="always"
       id="linearGradient3975">
      <stop
         style="stop-color:#000000;stop-opacity:1;"
         offset="0"
         id="stop3977" />
      <stop
         style="stop-color:#ffffff;stop-opacity:1"
         offset="1"
         id="stop3979" />
    </linearGradient>
    <linearGradient
       inkscape:collect="always"
       xlink:href="#linearGradient3975"
       id="linearGradient5046"
       gradientUnits="userSpaceOnUse"
       x1="561.63818"
       y1="341.66983"
       x2="552.87659"
       y2="332.06564" />
    <linearGradient
       inkscape:collect="always"
       id="linearGradient3736">
      <stop
         style="stop-color:#ffffff;stop-opacity:1;"
         offset="0"
         id="stop3738" />
      <stop
         style="stop-color:#333333;stop-opacity:1"
         offset="1"
         id="stop3740" />
    </linearGradient>
    <radialGradient
       inkscape:collect="always"
       xlink:href="#linearGradient3736"
       id="radialGradient5044"
       gradientUnits="userSpaceOnUse"
       gradientTransform="matrix(0.9124349,-0.7311154,0.4327251,0.5400429,-96.838899,561.67627)"
       cx="557.00433"
       cy="342.64487"
       fx="557.00433"
       fy="342.64487"
       r="16.192106" />
    <linearGradient
       inkscape:collect="always"
       id="linearGradient3960">
      <stop
         style="stop-color:#000000;stop-opacity:1;"
         offset="0"
         id="stop3962" />
      <stop
         style="stop-color:#000000;stop-opacity:0;"
         offset="1"
         id="stop3964" />
    </linearGradient>
    <linearGradient
       inkscape:collect="always"
       xlink:href="#linearGradient3960"
       id="linearGradient5042"
       gradientUnits="userSpaceOnUse"
       x1="577.11945"
       y1="362.74207"
       x2="532.64923"
       y2="294.29041" />
    <linearGradient
       inkscape:collect="always"
       id="linearGradient3952">
      <stop
         style="stop-color:#4d4d4d;stop-opacity:1"
         offset="0"
         id="stop3954" />
      <stop
         style="stop-color:#ffffff;stop-opacity:1"
         offset="1"
         id="stop3956" />
    </linearGradient>
    <radialGradient
       inkscape:collect="always"
       xlink:href="#linearGradient3952"
       id="radialGradient5040"
       gradientUnits="userSpaceOnUse"
       gradientTransform="matrix(0.2266789,1.9111497,-1.6439714,0.1949879,900.52425,-764.59298)"
       cx="526.48431"
       cy="300.11646"
       fx="526.48431"
       fy="300.11646"
       r="44.295696" />
    <linearGradient
       inkscape:collect="always"
       id="linearGradient3827">
      <stop
         style="stop-color:#ffffff;stop-opacity:1;"
         offset="0"
         id="stop3829" />
      <stop
         style="stop-color:#1a1a1a;stop-opacity:1"
         offset="1"
         id="stop3831" />
    </linearGradient>
    <radialGradient
       inkscape:collect="always"
       xlink:href="#linearGradient3827"
       id="radialGradient5038"
       gradientUnits="userSpaceOnUse"
       gradientTransform="matrix(-1.1108433,-0.9286918,0.6414027,-0.7672044,958.15816,1090.0116)"
       cx="530.45496"
       cy="326.37424"
       fx="530.45496"
       fy="326.37424"
       r="39.578484" />
    <inkscape:perspective
       sodipodi:type="inkscape:persp3d"
       inkscape:vp_x="0 : 526.18109 : 1"
       inkscape:vp_y="0 : 1000 : 0"
       inkscape:vp_z="744.09448 : 526.18109 : 1"
       inkscape:persp3d-origin="372.04724 : 350.78739 : 1"
       id="perspective6252" />
  </defs>
  <sodipodi:namedview
     id="base"
     pagecolor="#ffffff"
     bordercolor="#666666"
     borderopacity="1.0"
     gridtolerance="10000"
     guidetolerance="10"
     objecttolerance="10"
     inkscape:pageopacity="0.0"
     inkscape:pageshadow="2"
     inkscape:zoom="1.979899"
     inkscape:cx="79.649925"
     inkscape:cy="22.957055"
     inkscape:document-units="px"
     inkscape:current-layer="layer1"
     showgrid="false"
     inkscape:window-width="1280"
     inkscape:window-height="728"
     inkscape:window-x="0"
     inkscape:window-y="25" />
  <metadata
     id="metadata6249">
    <rdf:RDF>
      <cc:Work
         rdf:about="">
        <dc:format>image/svg+xml</dc:format>
        <dc:type
           rdf:resource="http://purl.org/dc/dcmitype/StillImage" />
      </cc:Work>
    </rdf:RDF>
  </metadata>
  <g
     inkscape:label="Layer 1"
     inkscape:groupmode="layer"
     id="layer1"
     transform="translate(-34.267747,-35.293948)">
    <g
       id="g6938"
       transform="translate(-486.07511,-248.85541)">
      <g
         transform="matrix(0.841777,0,0,0.841777,88.209925,42.420904)"
         id="g3992">
        <path
           style="fill:url(#radialGradient5038);fill-opacity:1;fill-rule:evenodd;stroke:#000000;stroke-width:0.5;stroke-linecap:butt;stroke-linejoin:miter;stroke-miterlimit:4;stroke-dasharray:none;stroke-opacity:1"
           d="M 557.5,292.25 C 535.94192,292.25 518.4375,309.75443 518.4375,331.3125 C 518.4375,352.87058 535.9419,370.375 557.5,370.375 C 579.05808,370.375 596.56248,352.8706 596.5625,331.3125 C 596.5625,309.75442 579.05807,292.24999 557.5,292.25 z M 557.5,297.0625 C 576.40035,297.0625 591.75,312.41215 591.75,331.3125 C 591.75002,350.21285 576.40035,365.5625 557.5,365.5625 C 538.59965,365.56249 523.25,350.21285 523.25,331.3125 C 523.24998,312.41214 538.59965,297.0625 557.5,297.0625 z"
           id="path3824" />
        <path
           id="path2922"
           style="fill:url(#radialGradient5040);fill-opacity:1;fill-rule:evenodd;stroke:url(#linearGradient5042);stroke-width:0.2;stroke-linecap:butt;stroke-linejoin:miter;stroke-miterlimit:4;stroke-dasharray:none;stroke-opacity:1"
           d="M 601.54936,331.31018 C 601.54936,355.6234 581.81689,375.35587 557.50367,375.35587 C 533.19044,375.35587 513.45797,355.6234 513.45797,331.31018 C 513.45797,306.99695 533.19044,287.26448 557.50367,287.26448 C 581.81689,287.26448 601.54936,306.99695 601.54936,331.31018 z M 572.89615,296.62374 C 573.20418,298.99072 568.58293,307.96968 564.81149,312.1287 C 562.1978,314.53921 552.49884,314.28241 550.72717,312.45751 C 546.72673,308.34814 542.6018,300.76531 542.09942,295.85765 C 541.90132,293.92251 552.0218,292.48686 556.88492,292.48686 C 561.74805,292.48686 572.89615,294.67849 572.89615,296.62374 z M 535.23607,300.59308 C 537.43995,301.50981 542.90533,310.00141 544.62143,315.34708 C 545.40215,318.81586 540.33027,327.087 537.86403,327.70887 C 532.30499,329.11866 523.6756,328.89954 519.17425,326.88079 C 517.39932,326.08478 521.21625,316.60236 523.64781,312.39077 C 526.07938,308.17918 533.55144,299.62046 535.23607,300.59308 z M 519.84358,335.19234 C 521.73943,333.74209 531.82606,333.25473 537.3136,334.44138 C 540.70801,335.49964 545.33509,344.02759 544.64052,346.47435 C 543.08192,351.99352 538.57746,359.35723 534.5785,362.24614 C 533.00167,363.38527 526.69811,355.3385 524.26655,351.12691 C 521.83499,346.91531 518.15895,336.16496 519.84358,335.19234 z M 542.11117,365.82225 C 541.80315,363.45527 546.4244,354.47632 550.19583,350.31729 C 552.80952,347.90678 562.50848,348.16358 564.28015,349.98848 C 568.28059,354.09785 572.40552,361.68068 572.90791,366.58834 C 573.10601,368.52348 562.98553,369.95914 558.1224,369.95913 C 553.25927,369.95913 542.11117,367.7675 542.11117,365.82225 z M 579.77125,361.85291 C 577.56738,360.93618 572.102,352.44458 570.38589,347.09891 C 569.60518,343.63014 574.67705,335.35899 577.1433,334.73713 C 582.70233,333.32733 591.33172,333.54645 595.83308,335.5652 C 597.60801,336.36121 593.79108,345.84363 591.35951,350.05522 C 588.92795,354.26682 581.45589,362.82554 579.77125,361.85291 z M 595.16374,327.25366 C 593.2679,328.7039 583.18127,329.19126 577.69372,328.00462 C 574.29933,326.94635 569.67224,318.4184 570.36681,315.97164 C 571.92541,310.45248 576.42986,303.08877 580.42883,300.19985 C 582.00566,299.06072 588.30922,307.10749 590.74077,311.31908 C 593.17235,315.53068 596.84839,326.28103 595.16374,327.25366 z" />
        <path
           d="M 572.94949,336.78043 A 15.692107,15.692107 0 1 1 541.56528,336.78043 A 15.692107,15.692107 0 1 1 572.94949,336.78043 z"
           sodipodi:ry="15.692107"
           sodipodi:rx="15.692107"
           sodipodi:cy="336.78043"
           sodipodi:cx="557.25739"
           id="path3702"
           style="fill:url(#radialGradient5044);fill-opacity:1;fill-rule:evenodd;stroke:none;stroke-width:0.5;stroke-linecap:butt;stroke-linejoin:miter;stroke-miterlimit:4;stroke-dasharray:none;stroke-opacity:1"
           sodipodi:type="arc"
           transform="translate(0.2462771,-5.4702495)" />
        <path
           sodipodi:type="arc"
           style="fill:#ffffff;fill-rule:evenodd;stroke:url(#linearGradient5046);stroke-width:0.5;stroke-linecap:butt;stroke-linejoin:miter;stroke-miterlimit:4;stroke-dasharray:none;stroke-opacity:1"
           id="path2920"
           sodipodi:cx="557.25739"
           sodipodi:cy="336.78043"
           sodipodi:rx="6.9695725"
           sodipodi:ry="6.9695725"
           d="M 564.22696,336.78043 A 6.9695725,6.9695725 0 1 1 550.28781,336.78043 A 6.9695725,6.9695725 0 1 1 564.22696,336.78043 z"
           transform="translate(0.2462771,-5.4702495)" />
        <path
           d="M 560.56349,336.78043 A 3.3061082,3.3061082 0 1 1 553.95128,336.78043 A 3.3061082,3.3061082 0 1 1 560.56349,336.78043 z"
           sodipodi:ry="3.3061082"
           sodipodi:rx="3.3061082"
           sodipodi:cy="336.78043"
           sodipodi:cx="557.25739"
           id="path3694"
           style="opacity:1;fill:url(#radialGradient5048);fill-opacity:1;fill-rule:evenodd;stroke:none;stroke-width:0.5;stroke-linecap:butt;stroke-linejoin:miter;marker:none;marker-start:none;marker-mid:none;marker-end:none;stroke-miterlimit:4;stroke-dasharray:none;stroke-dashoffset:0;stroke-opacity:1;visibility:visible;display:inline;overflow:visible;enable-background:accumulate"
           sodipodi:type="arc"
           transform="translate(11.411121,-5.4702495)" />
        <path
           transform="translate(0.7696292,-16.111741)"
           sodipodi:type="arc"
           style="opacity:1;fill:url(#radialGradient5050);fill-opacity:1;fill-rule:evenodd;stroke:none;stroke-width:0.5;stroke-linecap:butt;stroke-linejoin:miter;marker:none;marker-start:none;marker-mid:none;marker-end:none;stroke-miterlimit:4;stroke-dasharray:none;stroke-dashoffset:0;stroke-opacity:1;visibility:visible;display:inline;overflow:visible;enable-background:accumulate"
           id="path3696"
           sodipodi:cx="557.25739"
           sodipodi:cy="336.78043"
           sodipodi:rx="3.3061082"
           sodipodi:ry="3.3061082"
           d="M 560.56349,336.78043 A 3.3061082,3.3061082 0 1 1 553.95128,336.78043 A 3.3061082,3.3061082 0 1 1 560.56349,336.78043 z" />
        <path
           d="M 560.56349,336.78043 A 3.3061082,3.3061082 0 1 1 553.95128,336.78043 A 3.3061082,3.3061082 0 1 1 560.56349,336.78043 z"
           sodipodi:ry="3.3061082"
           sodipodi:rx="3.3061082"
           sodipodi:cy="336.78043"
           sodipodi:cx="557.25739"
           id="path3698"
           style="opacity:1;fill:url(#radialGradient5052);fill-opacity:1;fill-rule:evenodd;stroke:none;stroke-width:0.5;stroke-linecap:butt;stroke-linejoin:miter;marker:none;marker-start:none;marker-mid:none;marker-end:none;stroke-miterlimit:4;stroke-dasharray:none;stroke-dashoffset:0;stroke-opacity:1;visibility:visible;display:inline;overflow:visible;enable-background:accumulate"
           sodipodi:type="arc"
           transform="translate(-10.220764,-5.4702496)" />
        <path
           transform="translate(0.682404,5.1712425)"
           sodipodi:type="arc"
           style="opacity:1;fill:url(#radialGradient5054);fill-opacity:1;fill-rule:evenodd;stroke:none;stroke-width:0.5;stroke-linecap:butt;stroke-linejoin:miter;marker:none;marker-start:none;marker-mid:none;marker-end:none;stroke-miterlimit:4;stroke-dasharray:none;stroke-dashoffset:0;stroke-opacity:1;visibility:visible;display:inline;overflow:visible;enable-background:accumulate"
           id="path3700"
           sodipodi:cx="557.25739"
           sodipodi:cy="336.78043"
           sodipodi:rx="3.3061082"
           sodipodi:ry="3.3061082"
           d="M 560.56349,336.78043 A 3.3061082,3.3061082 0 1 1 553.95128,336.78043 A 3.3061082,3.3061082 0 1 1 560.56349,336.78043 z" />
        <path
           transform="matrix(0.5874904,0,0,0.5874904,241.28514,133.45491)"
           sodipodi:type="arc"
           style="fill:#333333;fill-rule:evenodd;stroke:none;stroke-width:0.85107774;stroke-linecap:butt;stroke-linejoin:miter;stroke-miterlimit:4;stroke-dasharray:none;stroke-opacity:1"
           id="path3704"
           sodipodi:cx="557.25739"
           sodipodi:cy="336.78043"
           sodipodi:rx="3.3061082"
           sodipodi:ry="3.3061082"
           d="M 560.56349,336.78043 A 3.3061082,3.3061082 0 1 1 553.95128,336.78043 A 3.3061082,3.3061082 0 1 1 560.56349,336.78043 z" />
        <path
           d="M 560.56349,336.78043 A 3.3061082,3.3061082 0 1 1 553.95128,336.78043 A 3.3061082,3.3061082 0 1 1 560.56349,336.78043 z"
           sodipodi:ry="3.3061082"
           sodipodi:rx="3.3061082"
           sodipodi:cy="336.78043"
           sodipodi:cx="557.25739"
           id="path3706"
           style="fill:#333333;fill-rule:evenodd;stroke:none;stroke-width:0.85107774;stroke-linecap:butt;stroke-linejoin:miter;stroke-miterlimit:4;stroke-dasharray:none;stroke-opacity:1"
           sodipodi:type="arc"
           transform="matrix(0.5874904,0,0,0.5874904,230.64365,122.81342)" />
        <path
           transform="matrix(0.5874904,0,0,0.5874904,219.65326,133.45491)"
           sodipodi:type="arc"
           style="fill:#333333;fill-rule:evenodd;stroke:none;stroke-width:0.85107774;stroke-linecap:butt;stroke-linejoin:miter;stroke-miterlimit:4;stroke-dasharray:none;stroke-opacity:1"
           id="path3708"
           sodipodi:cx="557.25739"
           sodipodi:cy="336.78043"
           sodipodi:rx="3.3061082"
           sodipodi:ry="3.3061082"
           d="M 560.56349,336.78043 A 3.3061082,3.3061082 0 1 1 553.95128,336.78043 A 3.3061082,3.3061082 0 1 1 560.56349,336.78043 z" />
        <path
           d="M 560.56349,336.78043 A 3.3061082,3.3061082 0 1 1 553.95128,336.78043 A 3.3061082,3.3061082 0 1 1 560.56349,336.78043 z"
           sodipodi:ry="3.3061082"
           sodipodi:rx="3.3061082"
           sodipodi:cy="336.78043"
           sodipodi:cx="557.25739"
           id="path3714"
           style="fill:#333333;fill-rule:evenodd;stroke:none;stroke-width:0.85107774;stroke-linecap:butt;stroke-linejoin:miter;stroke-miterlimit:4;stroke-dasharray:none;stroke-opacity:1"
           sodipodi:type="arc"
           transform="matrix(0.5874904,0,0,0.5874904,230.55643,144.0964)" />
      </g>
      <g
         style="opacity:0.5;fill:url(#linearGradient7873);fill-opacity:1;stroke:url(#linearGradient7875);filter:url(#filter5120)"
         id="g5056"
         transform="matrix(0.841777,0,0,-0.3211624,88.209925,479.05331)">
        <path
           id="path5058"
           d="M 557.5,292.25 C 535.94192,292.25 518.4375,309.75443 518.4375,331.3125 C 518.4375,352.87058 535.9419,370.375 557.5,370.375 C 579.05808,370.375 596.56248,352.8706 596.5625,331.3125 C 596.5625,309.75442 579.05807,292.24999 557.5,292.25 z M 557.5,297.0625 C 576.40035,297.0625 591.75,312.41215 591.75,331.3125 C 591.75002,350.21285 576.40035,365.5625 557.5,365.5625 C 538.59965,365.56249 523.25,350.21285 523.25,331.3125 C 523.24998,312.41214 538.59965,297.0625 557.5,297.0625 z"
           style="fill:url(#linearGradient7825);fill-opacity:1;fill-rule:evenodd;stroke:url(#linearGradient7827);stroke-width:0.5;stroke-linecap:butt;stroke-linejoin:miter;stroke-miterlimit:4;stroke-dasharray:none;stroke-opacity:1" />
        <path
           d="M 601.54936,331.31018 C 601.54936,355.6234 581.81689,375.35587 557.50367,375.35587 C 533.19044,375.35587 513.45797,355.6234 513.45797,331.31018 C 513.45797,306.99695 533.19044,287.26448 557.50367,287.26448 C 581.81689,287.26448 601.54936,306.99695 601.54936,331.31018 z M 572.89615,296.62374 C 573.20418,298.99072 568.58293,307.96968 564.81149,312.1287 C 562.1978,314.53921 552.49884,314.28241 550.72717,312.45751 C 546.72673,308.34814 542.6018,300.76531 542.09942,295.85765 C 541.90132,293.92251 552.0218,292.48686 556.88492,292.48686 C 561.74805,292.48686 572.89615,294.67849 572.89615,296.62374 z M 535.23607,300.59308 C 537.43995,301.50981 542.90533,310.00141 544.62143,315.34708 C 545.40215,318.81586 540.33027,327.087 537.86403,327.70887 C 532.30499,329.11866 523.6756,328.89954 519.17425,326.88079 C 517.39932,326.08478 521.21625,316.60236 523.64781,312.39077 C 526.07938,308.17918 533.55144,299.62046 535.23607,300.59308 z M 519.84358,335.19234 C 521.73943,333.74209 531.82606,333.25473 537.3136,334.44138 C 540.70801,335.49964 545.33509,344.02759 544.64052,346.47435 C 543.08192,351.99352 538.57746,359.35723 534.5785,362.24614 C 533.00167,363.38527 526.69811,355.3385 524.26655,351.12691 C 521.83499,346.91531 518.15895,336.16496 519.84358,335.19234 z M 542.11117,365.82225 C 541.80315,363.45527 546.4244,354.47632 550.19583,350.31729 C 552.80952,347.90678 562.50848,348.16358 564.28015,349.98848 C 568.28059,354.09785 572.40552,361.68068 572.90791,366.58834 C 573.10601,368.52348 562.98553,369.95914 558.1224,369.95913 C 553.25927,369.95913 542.11117,367.7675 542.11117,365.82225 z M 579.77125,361.85291 C 577.56738,360.93618 572.102,352.44458 570.38589,347.09891 C 569.60518,343.63014 574.67705,335.35899 577.1433,334.73713 C 582.70233,333.32733 591.33172,333.54645 595.83308,335.5652 C 597.60801,336.36121 593.79108,345.84363 591.35951,350.05522 C 588.92795,354.26682 581.45589,362.82554 579.77125,361.85291 z M 595.16374,327.25366 C 593.2679,328.7039 583.18127,329.19126 577.69372,328.00462 C 574.29933,326.94635 569.67224,318.4184 570.36681,315.97164 C 571.92541,310.45248 576.42986,303.08877 580.42883,300.19985 C 582.00566,299.06072 588.30922,307.10749 590.74077,311.31908 C 593.17235,315.53068 596.84839,326.28103 595.16374,327.25366 z"
           style="fill:url(#linearGradient7829);fill-opacity:1;fill-rule:evenodd;stroke:url(#linearGradient7831);stroke-width:0.2;stroke-linecap:butt;stroke-linejoin:miter;stroke-miterlimit:4;stroke-dasharray:none;stroke-opacity:1"
           id="path5060" />
        <path
           transform="translate(0.2462771,-5.4702495)"
           sodipodi:type="arc"
           style="fill:url(#linearGradient7833);fill-opacity:1;fill-rule:evenodd;stroke:url(#linearGradient7835);stroke-width:0.5;stroke-linecap:butt;stroke-linejoin:miter;stroke-miterlimit:4;stroke-dasharray:none;stroke-opacity:1"
           id="path5062"
           sodipodi:cx="557.25739"
           sodipodi:cy="336.78043"
           sodipodi:rx="15.692107"
           sodipodi:ry="15.692107"
           d="M 572.94949,336.78043 A 15.692107,15.692107 0 1 1 541.56528,336.78043 A 15.692107,15.692107 0 1 1 572.94949,336.78043 z" />
        <path
           transform="translate(0.2462771,-5.4702495)"
           d="M 564.22696,336.78043 A 6.9695725,6.9695725 0 1 1 550.28781,336.78043 A 6.9695725,6.9695725 0 1 1 564.22696,336.78043 z"
           sodipodi:ry="6.9695725"
           sodipodi:rx="6.9695725"
           sodipodi:cy="336.78043"
           sodipodi:cx="557.25739"
           id="path5064"
           style="fill:url(#linearGradient7837);fill-opacity:1;fill-rule:evenodd;stroke:url(#linearGradient7839);stroke-width:0.5;stroke-linecap:butt;stroke-linejoin:miter;stroke-miterlimit:4;stroke-dasharray:none;stroke-opacity:1"
           sodipodi:type="arc" />
        <path
           transform="translate(11.411121,-5.4702495)"
           sodipodi:type="arc"
           style="opacity:1;fill:url(#linearGradient7841);fill-opacity:1;fill-rule:evenodd;stroke:url(#linearGradient7843);stroke-width:0.5;stroke-linecap:butt;stroke-linejoin:miter;marker:none;marker-start:none;marker-mid:none;marker-end:none;stroke-miterlimit:4;stroke-dasharray:none;stroke-dashoffset:0;stroke-opacity:1;visibility:visible;display:inline;overflow:visible;enable-background:accumulate"
           id="path5066"
           sodipodi:cx="557.25739"
           sodipodi:cy="336.78043"
           sodipodi:rx="3.3061082"
           sodipodi:ry="3.3061082"
           d="M 560.56349,336.78043 A 3.3061082,3.3061082 0 1 1 553.95128,336.78043 A 3.3061082,3.3061082 0 1 1 560.56349,336.78043 z" />
        <path
           d="M 560.56349,336.78043 A 3.3061082,3.3061082 0 1 1 553.95128,336.78043 A 3.3061082,3.3061082 0 1 1 560.56349,336.78043 z"
           sodipodi:ry="3.3061082"
           sodipodi:rx="3.3061082"
           sodipodi:cy="336.78043"
           sodipodi:cx="557.25739"
           id="path5068"
           style="opacity:1;fill:url(#linearGradient7845);fill-opacity:1;fill-rule:evenodd;stroke:url(#linearGradient7847);stroke-width:0.5;stroke-linecap:butt;stroke-linejoin:miter;marker:none;marker-start:none;marker-mid:none;marker-end:none;stroke-miterlimit:4;stroke-dasharray:none;stroke-dashoffset:0;stroke-opacity:1;visibility:visible;display:inline;overflow:visible;enable-background:accumulate"
           sodipodi:type="arc"
           transform="translate(0.7696292,-16.111741)" />
        <path
           transform="translate(-10.220764,-5.4702496)"
           sodipodi:type="arc"
           style="opacity:1;fill:url(#linearGradient7849);fill-opacity:1;fill-rule:evenodd;stroke:url(#linearGradient7851);stroke-width:0.5;stroke-linecap:butt;stroke-linejoin:miter;marker:none;marker-start:none;marker-mid:none;marker-end:none;stroke-miterlimit:4;stroke-dasharray:none;stroke-dashoffset:0;stroke-opacity:1;visibility:visible;display:inline;overflow:visible;enable-background:accumulate"
           id="path5070"
           sodipodi:cx="557.25739"
           sodipodi:cy="336.78043"
           sodipodi:rx="3.3061082"
           sodipodi:ry="3.3061082"
           d="M 560.56349,336.78043 A 3.3061082,3.3061082 0 1 1 553.95128,336.78043 A 3.3061082,3.3061082 0 1 1 560.56349,336.78043 z" />
        <path
           d="M 560.56349,336.78043 A 3.3061082,3.3061082 0 1 1 553.95128,336.78043 A 3.3061082,3.3061082 0 1 1 560.56349,336.78043 z"
           sodipodi:ry="3.3061082"
           sodipodi:rx="3.3061082"
           sodipodi:cy="336.78043"
           sodipodi:cx="557.25739"
           id="path5072"
           style="opacity:1;fill:url(#linearGradient7853);fill-opacity:1;fill-rule:evenodd;stroke:url(#linearGradient7855);stroke-width:0.5;stroke-linecap:butt;stroke-linejoin:miter;marker:none;marker-start:none;marker-mid:none;marker-end:none;stroke-miterlimit:4;stroke-dasharray:none;stroke-dashoffset:0;stroke-opacity:1;visibility:visible;display:inline;overflow:visible;enable-background:accumulate"
           sodipodi:type="arc"
           transform="translate(0.682404,5.1712425)" />
        <path
           d="M 560.56349,336.78043 A 3.3061082,3.3061082 0 1 1 553.95128,336.78043 A 3.3061082,3.3061082 0 1 1 560.56349,336.78043 z"
           sodipodi:ry="3.3061082"
           sodipodi:rx="3.3061082"
           sodipodi:cy="336.78043"
           sodipodi:cx="557.25739"
           id="path5074"
           style="fill:url(#linearGradient7857);fill-opacity:1;fill-rule:evenodd;stroke:url(#linearGradient7859);stroke-width:0.85107774;stroke-linecap:butt;stroke-linejoin:miter;stroke-miterlimit:4;stroke-dasharray:none;stroke-opacity:1"
           sodipodi:type="arc"
           transform="matrix(0.5874904,0,0,0.5874904,241.28514,133.45491)" />
        <path
           transform="matrix(0.5874904,0,0,0.5874904,230.64365,122.81342)"
           sodipodi:type="arc"
           style="fill:url(#linearGradient7861);fill-opacity:1;fill-rule:evenodd;stroke:url(#linearGradient7863);stroke-width:0.85107774;stroke-linecap:butt;stroke-linejoin:miter;stroke-miterlimit:4;stroke-dasharray:none;stroke-opacity:1"
           id="path5076"
           sodipodi:cx="557.25739"
           sodipodi:cy="336.78043"
           sodipodi:rx="3.3061082"
           sodipodi:ry="3.3061082"
           d="M 560.56349,336.78043 A 3.3061082,3.3061082 0 1 1 553.95128,336.78043 A 3.3061082,3.3061082 0 1 1 560.56349,336.78043 z" />
        <path
           d="M 560.56349,336.78043 A 3.3061082,3.3061082 0 1 1 553.95128,336.78043 A 3.3061082,3.3061082 0 1 1 560.56349,336.78043 z"
           sodipodi:ry="3.3061082"
           sodipodi:rx="3.3061082"
           sodipodi:cy="336.78043"
           sodipodi:cx="557.25739"
           id="path5078"
           style="fill:url(#linearGradient7865);fill-opacity:1;fill-rule:evenodd;stroke:url(#linearGradient7867);stroke-width:0.85107774;stroke-linecap:butt;stroke-linejoin:miter;stroke-miterlimit:4;stroke-dasharray:none;stroke-opacity:1"
           sodipodi:type="arc"
           transform="matrix(0.5874904,0,0,0.5874904,219.65326,133.45491)" />
        <path
           transform="matrix(0.5874904,0,0,0.5874904,230.55643,144.0964)"
           sodipodi:type="arc"
           style="fill:url(#linearGradient7869);fill-opacity:1;fill-rule:evenodd;stroke:url(#linearGradient7871);stroke-width:0.85107774;stroke-linecap:butt;stroke-linejoin:miter;stroke-miterlimit:4;stroke-dasharray:none;stroke-opacity:1"
           id="path5080"
           sodipodi:cx="557.25739"
           sodipodi:cy="336.78043"
           sodipodi:rx="3.3061082"
           sodipodi:ry="3.3061082"
           d="M 560.56349,336.78043 A 3.3061082,3.3061082 0 1 1 553.95128,336.78043 A 3.3061082,3.3061082 0 1 1 560.56349,336.78043 z" />
      </g>
    </g>
  </g>
</svg>
