<?xml version="1.0" encoding="UTF-8" standalone="no"?>
<!-- Created with Inkscape (http://www.inkscape.org/) -->

<svg
   xmlns:dc="http://purl.org/dc/elements/1.1/"
   xmlns:cc="http://creativecommons.org/ns#"
   xmlns:rdf="http://www.w3.org/1999/02/22-rdf-syntax-ns#"
   xmlns:svg="http://www.w3.org/2000/svg"
   xmlns="http://www.w3.org/2000/svg"
   xmlns:xlink="http://www.w3.org/1999/xlink"
   xmlns:sodipodi="http://sodipodi.sourceforge.net/DTD/sodipodi-0.dtd"
   xmlns:inkscape="http://www.inkscape.org/namespaces/inkscape"
   width="90"
   height="90"
   id="svg2"
   version="1.1"
   inkscape:version="0.47 r22583"
   sodipodi:docname="wheel.svg">
  <defs
     id="defs4">
    <linearGradient
       inkscape:collect="always"
       id="linearGradient3775">
      <stop
         style="stop-color:#333333;stop-opacity:1;"
         offset="0"
         id="stop3777" />
      <stop
         style="stop-color:#333333;stop-opacity:0;"
         offset="1"
         id="stop3779" />
    </linearGradient>
    <linearGradient
       inkscape:collect="always"
       id="linearGradient3780">
      <stop
         style="stop-color:#f5f5f5;stop-opacity:1;"
         offset="0"
         id="stop3782" />
      <stop
         style="stop-color:#f5f5f5;stop-opacity:0;"
         offset="1"
         id="stop3784" />
    </linearGradient>
    <linearGradient
       inkscape:collect="always"
       id="linearGradient3709">
      <stop
         style="stop-color:#000000;stop-opacity:1;"
         offset="0"
         id="stop3711" />
      <stop
         style="stop-color:#000000;stop-opacity:0;"
         offset="1"
         id="stop3713" />
    </linearGradient>
    <inkscape:path-effect
       effect="spiro"
       id="path-effect3632"
       is_visible="true" />
    <inkscape:path-effect
       effect="spiro"
       id="path-effect3628"
       is_visible="true" />
    <inkscape:perspective
       sodipodi:type="inkscape:persp3d"
       inkscape:vp_x="0 : 526.18109 : 1"
       inkscape:vp_y="0 : 1000 : 0"
       inkscape:vp_z="744.09448 : 526.18109 : 1"
       inkscape:persp3d-origin="372.04724 : 350.78739 : 1"
       id="perspective10" />
    <inkscape:perspective
       id="perspective2824"
       inkscape:persp3d-origin="0.5 : 0.33333333 : 1"
       inkscape:vp_z="1 : 0.5 : 1"
       inkscape:vp_y="0 : 1000 : 0"
       inkscape:vp_x="0 : 0.5 : 1"
       sodipodi:type="inkscape:persp3d" />
    <linearGradient
       inkscape:collect="always"
       xlink:href="#linearGradient3709"
       id="linearGradient3715"
       x1="245.55103"
       y1="592.60706"
       x2="377.65598"
       y2="707.54584"
       gradientUnits="userSpaceOnUse"
       gradientTransform="translate(-231.27377,386.76099)" />
    <inkscape:perspective
       id="perspective3733"
       inkscape:persp3d-origin="0.5 : 0.33333333 : 1"
       inkscape:vp_z="1 : 0.5 : 1"
       inkscape:vp_y="0 : 1000 : 0"
       inkscape:vp_x="0 : 0.5 : 1"
       sodipodi:type="inkscape:persp3d" />
    <linearGradient
       inkscape:collect="always"
       xlink:href="#linearGradient3780"
       id="linearGradient3786"
       x1="70.851067"
       y1="984.57495"
       x2="76.82048"
       y2="1014.0643"
       gradientUnits="userSpaceOnUse" />
    <inkscape:perspective
       id="perspective2853"
       inkscape:persp3d-origin="0.5 : 0.33333333 : 1"
       inkscape:vp_z="1 : 0.5 : 1"
       inkscape:vp_y="0 : 1000 : 0"
       inkscape:vp_x="0 : 0.5 : 1"
       sodipodi:type="inkscape:persp3d" />
    <inkscape:perspective
       id="perspective2867"
       inkscape:persp3d-origin="0.5 : 0.33333333 : 1"
       inkscape:vp_z="1 : 0.5 : 1"
       inkscape:vp_y="0 : 1000 : 0"
       inkscape:vp_x="0 : 0.5 : 1"
       sodipodi:type="inkscape:persp3d" />
    <filter
       inkscape:collect="always"
       id="filter3887">
      <feGaussianBlur
         inkscape:collect="always"
         stdDeviation="1.7139476"
         id="feGaussianBlur3889" />
    </filter>
    <linearGradient
       inkscape:collect="always"
       xlink:href="#linearGradient3775"
       id="linearGradient3781"
       x1="37.068485"
       y1="1009.3514"
       x2="30.701759"
       y2="1021.8393"
       gradientUnits="userSpaceOnUse"
       gradientTransform="matrix(0.97243985,0,0,0.9724378,-5.1874142,28.124957)" />
  </defs>
  <sodipodi:namedview
     id="base"
     pagecolor="#ffffff"
     bordercolor="#666666"
     borderopacity="1.0"
     inkscape:pageopacity="0.0"
     inkscape:pageshadow="2"
     inkscape:zoom="1.7669997"
     inkscape:cx="93.634117"
     inkscape:cy="50.550224"
     inkscape:document-units="px"
     inkscape:current-layer="layer1"
     showgrid="false"
     inkscape:window-width="1280"
     inkscape:window-height="712"
     inkscape:window-x="-4"
     inkscape:window-y="-4"
     inkscape:window-maximized="1"
     showguides="true"
     inkscape:guide-bbox="true" />
  <metadata
     id="metadata7">
    <rdf:RDF>
      <cc:Work
         rdf:about="">
        <dc:format>image/svg+xml</dc:format>
        <dc:type
           rdf:resource="http://purl.org/dc/dcmitype/StillImage" />
        <dc:title></dc:title>
      </cc:Work>
    </rdf:RDF>
  </metadata>
  <g
     inkscape:label="Layer 1"
     inkscape:groupmode="layer"
     id="layer1"
     transform="translate(0,-962.36218)">
    <path
       style="opacity:0.72105264;fill:#000000;fill-opacity:1;fill-rule:evenodd;stroke:#100e0e;stroke-width:1.0267154;stroke-linecap:round;stroke-linejoin:round;stroke-miterlimit:0;stroke-opacity:1;stroke-dasharray:none;stroke-dashoffset:0"
       d="m 42.172947,980.76908 c -14.364065,0 -25.996887,11.63277 -25.996887,25.99682 0,14.3641 11.632822,26.0246 25.996887,26.0246 14.364064,0 26.024516,-11.6605 26.024516,-26.0246 0,-14.36405 -11.660452,-25.99682 -26.024516,-25.99682 z m -0.414402,4.33741 c 11.970054,0 21.659469,9.71702 21.659469,21.68711 0,11.97 -9.689415,21.6595 -21.659469,21.6595 -11.970054,0 -21.687095,-9.6895 -21.687095,-21.6595 0,-11.97009 9.717041,-21.68711 21.687095,-21.68711 z"
       id="path3741"
       inkscape:export-filename="D:\FASTALLOY\VAT\TTD\2009 TTD\TTD DEC 2009\today\Hind motor\logo\Wheel\wheel.png"
       inkscape:export-xdpi="91.190002"
       inkscape:export-ydpi="91.190002" />
    <path
       style="fill:#4d4d4d;stroke:#000000;stroke-width:0.78226262px;stroke-linecap:butt;stroke-linejoin:miter;stroke-opacity:1"
       d="m 23.143182,1003.337 c -1.711826,-2.3179 0.994691,-5.8314 2.542107,-8.26204 1.07396,-1.68685 2.465935,-4.28521 4.448687,-4.02489 2.835329,0.37216 4.660533,7.20255 4.660533,7.20255 l -2.75395,5.08438 c 0,0 -7.135397,2.3856 -8.897377,0 z"
       id="path2957"
       sodipodi:nodetypes="caacca"
       inkscape:export-filename="D:\FASTALLOY\VAT\TTD\2009 TTD\TTD DEC 2009\today\Hind motor\logo\Wheel\wheel.png"
       inkscape:export-xdpi="91.190002"
       inkscape:export-ydpi="91.190002" />
    <path
       sodipodi:nodetypes="caacca"
       id="path2961"
       d="m 35.441711,988.35563 c 1.133213,-2.64911 5.533175,-2.09204 8.412627,-1.98693 1.998432,0.0729 4.943969,-0.0409 5.722559,1.80111 1.113374,2.63394 -3.85507,7.66397 -3.85507,7.66397 l -5.778821,0.19663 c 0,0 -5.667714,-4.94796 -4.501295,-7.67478 z"
       style="fill:none;stroke:#000000;stroke-width:0.78226262px;stroke-linecap:butt;stroke-linejoin:miter;stroke-opacity:1"
       inkscape:export-filename="D:\FASTALLOY\VAT\TTD\2009 TTD\TTD DEC 2009\today\Hind motor\logo\Wheel\wheel.png"
       inkscape:export-xdpi="91.190002"
       inkscape:export-ydpi="91.190002" />
    <path
       style="fill:none;stroke:#000000;stroke-width:0.78226262px;stroke-linecap:butt;stroke-linejoin:miter;stroke-opacity:1"
       d="m 35.441711,988.35563 c 1.133213,-2.64911 5.533175,-2.09204 8.412627,-1.98693 1.998432,0.0729 4.943969,-0.0409 5.722559,1.80111 1.113374,2.63394 -3.85507,7.66397 -3.85507,7.66397 l -5.778821,0.19663 c 0,0 -5.667714,-4.94796 -4.501295,-7.67478 z"
       id="path2963"
       sodipodi:nodetypes="caacca"
       inkscape:export-filename="D:\FASTALLOY\VAT\TTD\2009 TTD\TTD DEC 2009\today\Hind motor\logo\Wheel\wheel.png"
       inkscape:export-xdpi="91.190002"
       inkscape:export-ydpi="91.190002" />
    <path
       sodipodi:nodetypes="caacca"
       id="path2965"
       d="m 61.626522,1008.5133 c 1.784075,2.2626 -0.810276,5.8596 -2.280259,8.3379 -1.020178,1.72 -2.329536,4.3609 -4.31952,4.1634 -2.845653,-0.2827 -4.885396,-7.0521 -4.885396,-7.0521 l 2.592217,-5.1686 c 0,0 7.056603,-2.6094 8.892958,-0.2806 z"
       style="fill:none;stroke:#000000;stroke-width:0.78226262px;stroke-linecap:butt;stroke-linejoin:miter;stroke-opacity:1"
       inkscape:export-filename="D:\FASTALLOY\VAT\TTD\2009 TTD\TTD DEC 2009\today\Hind motor\logo\Wheel\wheel.png"
       inkscape:export-xdpi="91.190002"
       inkscape:export-ydpi="91.190002" />
    <path
       style="fill:none;stroke:#000000;stroke-width:0.78226262px;stroke-linecap:butt;stroke-linejoin:miter;stroke-opacity:1"
       d="m 54.47633,990.91334 c 2.867706,-0.28016 4.494856,3.8456 5.787202,6.42091 0.89696,1.78735 2.413043,4.31535 1.172332,5.88365 -1.774217,2.2428 -8.573554,0.3049 -8.573554,0.3049 l -2.951018,-4.97251 c 0,0 1.613295,-7.34861 4.565038,-7.63695 z"
       id="path2967"
       sodipodi:nodetypes="caacca"
       inkscape:export-filename="D:\FASTALLOY\VAT\TTD\2009 TTD\TTD DEC 2009\today\Hind motor\logo\Wheel\wheel.png"
       inkscape:export-xdpi="91.190002"
       inkscape:export-ydpi="91.190002" />
    <path
       style="fill:none;stroke:#000000;stroke-width:0.78226262px;stroke-linecap:butt;stroke-linejoin:miter;stroke-opacity:1"
       d="m 48.918408,1024.7324 c -1.264295,2.5893 -5.630886,1.8127 -8.501479,1.5638 -1.992283,-0.1727 -4.939829,-0.2064 -5.625318,-2.085 -0.980222,-2.6865 4.233587,-7.4618 4.233587,-7.4618 l 5.781426,0.092 c 0,0 5.413132,5.2252 4.111784,7.8902 z"
       id="path2969"
       sodipodi:nodetypes="caacca"
       inkscape:export-filename="D:\FASTALLOY\VAT\TTD\2009 TTD\TTD DEC 2009\today\Hind motor\logo\Wheel\wheel.png"
       inkscape:export-xdpi="91.190002"
       inkscape:export-ydpi="91.190002" />
    <path
       sodipodi:nodetypes="caacca"
       id="path2971"
       d="m 48.918408,1024.7324 c -1.264295,2.5893 -5.630886,1.8127 -8.501479,1.5638 -1.992283,-0.1727 -4.939829,-0.2064 -5.625318,-2.085 -0.980222,-2.6865 4.233587,-7.4618 4.233587,-7.4618 l 5.781426,0.092 c 0,0 5.413132,5.2252 4.111784,7.8902 z"
       style="fill:none;stroke:#000000;stroke-width:0.78226262px;stroke-linecap:butt;stroke-linejoin:miter;stroke-opacity:1"
       inkscape:export-filename="D:\FASTALLOY\VAT\TTD\2009 TTD\TTD DEC 2009\today\Hind motor\logo\Wheel\wheel.png"
       inkscape:export-xdpi="91.190002"
       inkscape:export-ydpi="91.190002" />
    <path
       style="fill:none;stroke:#000000;stroke-width:0.78226262px;stroke-linecap:butt;stroke-linejoin:miter;stroke-opacity:1"
       d="m 29.637905,1021.386 c -2.858155,0.3649 -4.606737,-3.7109 -5.974756,-6.2469 -0.949487,-1.7599 -2.539744,-4.2419 -1.346006,-5.8463 1.707043,-2.2943 8.560773,-0.5585 8.560773,-0.5585 l 3.096927,4.8829 c 0,0 -1.395025,7.3932 -4.336938,7.7688 z"
       id="path2973"
       sodipodi:nodetypes="caacca"
       inkscape:export-filename="D:\FASTALLOY\VAT\TTD\2009 TTD\TTD DEC 2009\today\Hind motor\logo\Wheel\wheel.png"
       inkscape:export-xdpi="91.190002"
       inkscape:export-ydpi="91.190002" />
    <path
       sodipodi:type="arc"
       style="opacity:0.29473685;fill:#000000;fill-opacity:1;fill-rule:evenodd;stroke:#7b6d10;stroke-width:0.2;stroke-linecap:round;stroke-linejoin:round;stroke-miterlimit:4;stroke-opacity:1;stroke-dasharray:none;stroke-dashoffset:0"
       id="path2975"
       sodipodi:cx="-53.348949"
       sodipodi:cy="4.8312449"
       sodipodi:rx="8.3950129"
       sodipodi:ry="9.3428364"
       d="m -44.953937,4.8312449 a 8.3950129,9.3428364 0 1 1 -16.790025,0 8.3950129,9.3428364 0 1 1 16.790025,0 z"
       transform="matrix(1.0198634,0,0,0.90505982,96.511707,1001.2947)"
       inkscape:export-filename="D:\FASTALLOY\VAT\TTD\2009 TTD\TTD DEC 2009\today\Hind motor\logo\Wheel\wheel.png"
       inkscape:export-xdpi="91.190002"
       inkscape:export-ydpi="91.190002" />
    <path
       id="path2977"
       d="m 42.170093,975.39921 c -17.329494,0 -31.363888,14.03437 -31.363888,31.36389 0,17.3295 14.034394,31.3973 31.363888,31.3973 17.329499,0 31.397224,-14.0678 31.397224,-31.3973 0,-17.32952 -14.067725,-31.36389 -31.397224,-31.36389 z m -0.499949,5.23288 c 14.441241,0 26.131015,11.72308 26.131015,26.16441 0,14.4412 -11.689774,26.131 -26.131015,26.131 -14.441249,0 -26.164353,-11.6898 -26.164353,-26.131 0,-14.44133 11.723104,-26.16441 26.164353,-26.16441 z"
       style="fill:#151515;fill-opacity:1;fill-rule:evenodd;stroke:#100e0e;stroke-width:1.23888695;stroke-linecap:round;stroke-linejoin:round;stroke-miterlimit:0;stroke-opacity:1;stroke-dasharray:0.61944349, 0.61944349;stroke-dashoffset:0"
       inkscape:export-filename="D:\FASTALLOY\VAT\TTD\2009 TTD\TTD DEC 2009\today\Hind motor\logo\Wheel\wheel.png"
       inkscape:export-xdpi="91.190002"
       inkscape:export-ydpi="91.190002" />
    <path
       style="fill:none;stroke:#000000;stroke-width:0.78226262px;stroke-linecap:butt;stroke-linejoin:miter;stroke-opacity:1"
       d="m 35.441711,988.35563 c 1.133213,-2.64911 5.533175,-2.09204 8.412627,-1.98693 1.998432,0.0729 4.943969,-0.0409 5.722559,1.80111 1.113374,2.63394 -3.85507,7.66397 -3.85507,7.66397 l -5.778821,0.19663 c 0,0 -5.667714,-4.94796 -4.501295,-7.67478 z"
       id="path2981"
       sodipodi:nodetypes="caacca"
       inkscape:export-filename="D:\FASTALLOY\VAT\TTD\2009 TTD\TTD DEC 2009\today\Hind motor\logo\Wheel\wheel.png"
       inkscape:export-xdpi="91.190002"
       inkscape:export-ydpi="91.190002" />
    <path
       sodipodi:nodetypes="caacca"
       id="path2983"
       d="m 35.441711,988.35563 c 1.133213,-2.64911 5.533175,-2.09204 8.412627,-1.98693 1.998432,0.0729 4.943969,-0.0409 5.722559,1.80111 1.113374,2.63394 -3.85507,7.66397 -3.85507,7.66397 l -5.778821,0.19663 c 0,0 -5.667714,-4.94796 -4.501295,-7.67478 z"
       style="fill:#4d4d4d;stroke:#000000;stroke-width:0.78226262px;stroke-linecap:butt;stroke-linejoin:miter;stroke-opacity:1"
       inkscape:export-filename="D:\FASTALLOY\VAT\TTD\2009 TTD\TTD DEC 2009\today\Hind motor\logo\Wheel\wheel.png"
       inkscape:export-xdpi="91.190002"
       inkscape:export-ydpi="91.190002" />
    <path
       style="fill:#666666;stroke:#000000;stroke-width:0.78226262px;stroke-linecap:butt;stroke-linejoin:miter;stroke-opacity:1"
       d="m 61.626522,1008.5133 c 1.784075,2.2626 -0.810276,5.8596 -2.280259,8.3379 -1.020178,1.72 -2.329536,4.3609 -4.31952,4.1634 -2.845653,-0.2827 -4.885396,-7.0521 -4.885396,-7.0521 l 2.592217,-5.1686 c 0,0 7.056603,-2.6094 8.892958,-0.2806 z"
       id="path2985"
       sodipodi:nodetypes="caacca"
       inkscape:export-filename="D:\FASTALLOY\VAT\TTD\2009 TTD\TTD DEC 2009\today\Hind motor\logo\Wheel\wheel.png"
       inkscape:export-xdpi="91.190002"
       inkscape:export-ydpi="91.190002" />
    <path
       sodipodi:nodetypes="caacca"
       id="path2987"
       d="m 54.47633,990.91334 c 2.867706,-0.28016 4.494856,3.8456 5.787202,6.42091 0.89696,1.78735 2.413043,4.31535 1.172332,5.88365 -1.774217,2.2428 -8.573554,0.3049 -8.573554,0.3049 l -2.951018,-4.97251 c 0,0 1.613295,-7.34861 4.565038,-7.63695 z"
       style="fill:#4d4d4d;stroke:#000000;stroke-width:0.78226262px;stroke-linecap:butt;stroke-linejoin:miter;stroke-opacity:1"
       inkscape:export-filename="D:\FASTALLOY\VAT\TTD\2009 TTD\TTD DEC 2009\today\Hind motor\logo\Wheel\wheel.png"
       inkscape:export-xdpi="91.190002"
       inkscape:export-ydpi="91.190002" />
    <path
       sodipodi:nodetypes="caacca"
       id="path2989"
       d="m 48.918408,1024.7324 c -1.264295,2.5893 -5.630886,1.8127 -8.501479,1.5638 -1.992283,-0.1727 -4.939829,-0.2064 -5.625318,-2.085 -0.980222,-2.6865 4.233587,-7.4618 4.233587,-7.4618 l 5.781426,0.092 c 0,0 5.413132,5.2252 4.111784,7.8902 z"
       style="fill:none;stroke:#000000;stroke-width:0.78226262px;stroke-linecap:butt;stroke-linejoin:miter;stroke-opacity:1"
       inkscape:export-filename="D:\FASTALLOY\VAT\TTD\2009 TTD\TTD DEC 2009\today\Hind motor\logo\Wheel\wheel.png"
       inkscape:export-xdpi="91.190002"
       inkscape:export-ydpi="91.190002" />
    <path
       style="fill:#666666;stroke:#000000;stroke-width:0.78226262px;stroke-linecap:butt;stroke-linejoin:miter;stroke-opacity:1"
       d="m 48.918408,1024.7324 c -1.264295,2.5893 -5.630886,1.8127 -8.501479,1.5638 -1.992283,-0.1727 -4.939829,-0.2064 -5.625318,-2.085 -0.980222,-2.6865 4.233587,-7.4618 4.233587,-7.4618 l 5.781426,0.092 c 0,0 5.413132,5.2252 4.111784,7.8902 z"
       id="path2991"
       sodipodi:nodetypes="caacca"
       inkscape:export-filename="D:\FASTALLOY\VAT\TTD\2009 TTD\TTD DEC 2009\today\Hind motor\logo\Wheel\wheel.png"
       inkscape:export-xdpi="91.190002"
       inkscape:export-ydpi="91.190002" />
    <path
       sodipodi:nodetypes="caacca"
       id="path2993"
       d="m 29.637905,1021.386 c -2.858155,0.3649 -4.606737,-3.7109 -5.974756,-6.2469 -0.949487,-1.7599 -2.539744,-4.2419 -1.346006,-5.8463 1.707043,-2.2943 8.560773,-0.5585 8.560773,-0.5585 l 3.096927,4.8829 c 0,0 -1.395025,7.3932 -4.336938,7.7688 z"
       style="fill:url(#linearGradient3781);fill-opacity:1;stroke:#534545;stroke-width:0.78184074;stroke-linecap:butt;stroke-linejoin:miter;stroke-miterlimit:4;stroke-opacity:1;stroke-dasharray:none"
       inkscape:export-filename="D:\FASTALLOY\VAT\TTD\2009 TTD\TTD DEC 2009\today\Hind motor\logo\Wheel\wheel.png"
       inkscape:export-xdpi="91.190002"
       inkscape:export-ydpi="91.190002" />
    <path
       id="path3063"
       d="m -54.478252,931.70926 c -18.362182,0 -33.232903,14.87073 -33.232903,33.23293 0,18.3622 14.870721,33.26828 33.232903,33.26828 18.362183,0 33.268222,-14.90608 33.268222,-33.26828 0,-18.3622 -14.906039,-33.23293 -33.268222,-33.23293 z m -0.529746,5.54471 c 15.301817,0 27.688199,12.42171 27.688199,27.72353 0,15.30181 -12.386382,27.68825 -27.688199,27.68825 -15.301819,0 -27.723517,-12.38644 -27.723517,-27.68825 0,-15.30182 12.421698,-27.72353 27.723517,-27.72353 z"
       style="opacity:0.45540167;fill:#000000;fill-opacity:1;fill-rule:evenodd;stroke:#100e0e;stroke-width:1.31249452;stroke-linecap:round;stroke-linejoin:round;stroke-miterlimit:0;stroke-opacity:1;stroke-dasharray:none;stroke-dashoffset:0;filter:url(#filter3887)"
       transform="matrix(0.65881425,0,0,0.65881284,77.430648,371.0518)"
       inkscape:export-filename="D:\FASTALLOY\VAT\TTD\2009 TTD\TTD DEC 2009\today\Hind motor\logo\Wheel\wheel.png"
       inkscape:export-xdpi="91.190002"
       inkscape:export-ydpi="91.190002" />
    <path
       sodipodi:nodetypes="caacca"
       id="path3065"
       d="m -78.804794,960.55865 c -2.188297,-2.96286 1.271556,-7.45433 3.249683,-10.56146 1.372887,-2.15645 3.152307,-5.47806 5.686944,-5.14534 3.624518,0.4758 5.957751,9.20744 5.957751,9.20744 l -3.52049,6.49936 c 0,0 -9.121472,3.04968 -11.373888,0 z"
       style="opacity:0.63157893;fill:none;stroke:#000000;stroke-width:1px;stroke-linecap:butt;stroke-linejoin:miter;stroke-opacity:1;filter:url(#filter3887)"
       transform="matrix(0.65881425,0,0,0.65881284,77.430648,371.0518)"
       inkscape:export-filename="D:\FASTALLOY\VAT\TTD\2009 TTD\TTD DEC 2009\today\Hind motor\logo\Wheel\wheel.png"
       inkscape:export-xdpi="91.190002"
       inkscape:export-ydpi="91.190002" />
    <path
       style="opacity:0.63157893;fill:none;stroke:#000000;stroke-width:1px;stroke-linecap:butt;stroke-linejoin:miter;stroke-opacity:1;filter:url(#filter3887)"
       d="m -63.083071,941.40755 c 1.448632,-3.38654 7.073288,-2.67441 10.754211,-2.54004 2.554681,0.0932 6.320082,-0.0523 7.315388,2.30237 1.423271,3.36717 -4.928098,9.79723 -4.928098,9.79723 l -7.387309,0.25139 c 0,0 -7.245274,-6.32518 -5.754192,-9.81095 z"
       id="path3067"
       sodipodi:nodetypes="caacca"
       transform="matrix(0.65881425,0,0,0.65881284,77.430648,371.0518)"
       inkscape:export-filename="D:\FASTALLOY\VAT\TTD\2009 TTD\TTD DEC 2009\today\Hind motor\logo\Wheel\wheel.png"
       inkscape:export-xdpi="91.190002"
       inkscape:export-ydpi="91.190002" />
    <path
       sodipodi:nodetypes="caacca"
       id="path3069"
       d="m -63.083071,941.40755 c 1.448632,-3.38654 7.073288,-2.67441 10.754211,-2.54004 2.554681,0.0932 6.320082,-0.0523 7.315388,2.30237 1.423271,3.36717 -4.928098,9.79723 -4.928098,9.79723 l -7.387309,0.25139 c 0,0 -7.245274,-6.32518 -5.754192,-9.81095 z"
       style="opacity:0.63157893;fill:none;stroke:#000000;stroke-width:1px;stroke-linecap:butt;stroke-linejoin:miter;stroke-opacity:1;filter:url(#filter3887)"
       transform="matrix(0.65881425,0,0,0.65881284,77.430648,371.0518)"
       inkscape:export-filename="D:\FASTALLOY\VAT\TTD\2009 TTD\TTD DEC 2009\today\Hind motor\logo\Wheel\wheel.png"
       inkscape:export-xdpi="91.190002"
       inkscape:export-ydpi="91.190002" />
    <path
       style="opacity:0.63157893;fill:none;stroke:#000000;stroke-width:1px;stroke-linecap:butt;stroke-linejoin:miter;stroke-opacity:1;filter:url(#filter3887)"
       d="m -29.609936,967.17584 c 2.280657,2.89236 -1.03581,7.49072 -2.914951,10.6587 -1.304136,2.1987 -2.977945,5.57477 -5.521822,5.32216 -3.637716,-0.36125 -6.245205,-9.01495 -6.245205,-9.01495 l 3.313738,-6.60717 c 0,0 9.02075,-3.33586 11.36824,-0.35874 z"
       id="path3071"
       sodipodi:nodetypes="caacca"
       transform="matrix(0.65881425,0,0,0.65881284,77.430648,371.0518)"
       inkscape:export-filename="D:\FASTALLOY\VAT\TTD\2009 TTD\TTD DEC 2009\today\Hind motor\logo\Wheel\wheel.png"
       inkscape:export-xdpi="91.190002"
       inkscape:export-ydpi="91.190002" />
    <path
       sodipodi:nodetypes="caacca"
       id="path3073"
       d="m -38.750325,944.67709 c 3.665908,-0.35814 5.745961,4.91607 7.398019,8.20817 1.146624,2.2848 3.084696,5.51642 1.498643,7.52131 -2.268056,2.86695 -10.95993,0.38968 -10.95993,0.38968 l -3.772409,-6.35645 c 0,0 2.062342,-9.39408 5.835677,-9.76271 z"
       style="opacity:0.63157893;fill:none;stroke:#000000;stroke-width:1px;stroke-linecap:butt;stroke-linejoin:miter;stroke-opacity:1;filter:url(#filter3887)"
       transform="matrix(0.65881425,0,0,0.65881284,77.430648,371.0518)"
       inkscape:export-filename="D:\FASTALLOY\VAT\TTD\2009 TTD\TTD DEC 2009\today\Hind motor\logo\Wheel\wheel.png"
       inkscape:export-xdpi="91.190002"
       inkscape:export-ydpi="91.190002" />
    <path
       sodipodi:nodetypes="caacca"
       id="path3075"
       d="m -45.855247,987.90953 c -1.616203,3.30984 -7.198198,2.31727 -10.867796,1.99896 -2.546816,-0.22086 -6.31479,-0.26388 -7.191076,-2.66539 -1.253061,-3.43414 5.411968,-9.53848 5.411968,-9.53848 l 7.390638,0.11843 c 0,0 6.919833,6.67965 5.256266,10.08648 z"
       style="opacity:0.63157893;fill:none;stroke:#000000;stroke-width:1px;stroke-linecap:butt;stroke-linejoin:miter;stroke-opacity:1;filter:url(#filter3887)"
       transform="matrix(0.65881425,0,0,0.65881284,77.430648,371.0518)"
       inkscape:export-filename="D:\FASTALLOY\VAT\TTD\2009 TTD\TTD DEC 2009\today\Hind motor\logo\Wheel\wheel.png"
       inkscape:export-xdpi="91.190002"
       inkscape:export-ydpi="91.190002" />
    <path
       style="opacity:0.63157893;fill:none;stroke:#000000;stroke-width:1px;stroke-linecap:butt;stroke-linejoin:miter;stroke-opacity:1;filter:url(#filter3887)"
       d="m -45.855247,987.90953 c -1.616203,3.30984 -7.198198,2.31727 -10.867796,1.99896 -2.546816,-0.22086 -6.31479,-0.26388 -7.191076,-2.66539 -1.253061,-3.43414 5.411968,-9.53848 5.411968,-9.53848 l 7.390638,0.11843 c 0,0 6.919833,6.67965 5.256266,10.08648 z"
       id="path3077"
       sodipodi:nodetypes="caacca"
       transform="matrix(0.65881425,0,0,0.65881284,77.430648,371.0518)"
       inkscape:export-filename="D:\FASTALLOY\VAT\TTD\2009 TTD\TTD DEC 2009\today\Hind motor\logo\Wheel\wheel.png"
       inkscape:export-xdpi="91.190002"
       inkscape:export-ydpi="91.190002" />
    <path
       sodipodi:nodetypes="caacca"
       id="path3079"
       d="m -70.502317,983.63155 c -3.653699,0.46651 -5.888984,-4.7438 -7.63778,-7.98556 -1.213767,-2.24985 -3.24666,-5.42267 -1.720656,-7.47363 2.182186,-2.93284 10.943593,-0.71399 10.943593,-0.71399 l 3.958931,6.24199 c 0,0 -1.78332,9.45101 -5.544088,9.93119 z"
       style="opacity:0.63157893;fill:none;stroke:#000000;stroke-width:1px;stroke-linecap:butt;stroke-linejoin:miter;stroke-opacity:1;filter:url(#filter3887)"
       transform="matrix(0.65881425,0,0,0.65881284,77.430648,371.0518)"
       inkscape:export-filename="D:\FASTALLOY\VAT\TTD\2009 TTD\TTD DEC 2009\today\Hind motor\logo\Wheel\wheel.png"
       inkscape:export-xdpi="91.190002"
       inkscape:export-ydpi="91.190002" />
    <path
       style="opacity:0.45540167;fill:#000000;fill-opacity:1;fill-rule:evenodd;stroke:#100e0e;stroke-width:1.31249452;stroke-linecap:round;stroke-linejoin:round;stroke-miterlimit:0;stroke-opacity:1;stroke-dasharray:none;stroke-dashoffset:0;filter:url(#filter3887)"
       d="m -58.811163,920.87699 c -18.362182,0 -33.232903,14.87073 -33.232903,33.23293 0,18.3622 14.870721,33.26828 33.232903,33.26828 18.362183,0 33.268222,-14.90608 33.268222,-33.26828 0,-18.3622 -14.906039,-33.23293 -33.268222,-33.23293 z m -0.529746,5.54471 c 15.301817,0 27.688199,12.42171 27.688199,27.72353 0,15.30181 -12.386382,27.68825 -27.688199,27.68825 -15.301819,0 -27.723517,-12.38644 -27.723517,-27.68825 0,-15.30182 12.421698,-27.72353 27.723517,-27.72353 z"
       id="path3083"
       transform="matrix(0.699964,0,0,0.6999625,82.704569,338.92621)"
       inkscape:export-filename="D:\FASTALLOY\VAT\TTD\2009 TTD\TTD DEC 2009\today\Hind motor\logo\Wheel\wheel.png"
       inkscape:export-xdpi="91.190002"
       inkscape:export-ydpi="91.190002" />
    <path
       style="opacity:0.63157893;fill:none;stroke:#000000;stroke-width:1px;stroke-linecap:butt;stroke-linejoin:miter;stroke-opacity:1;filter:url(#filter3887)"
       d="m -78.804794,960.55865 c -2.188297,-2.96286 1.271556,-7.45433 3.249683,-10.56146 1.372887,-2.15645 3.152307,-5.47806 5.686944,-5.14534 3.624518,0.4758 5.957751,9.20744 5.957751,9.20744 l -3.52049,6.49936 c 0,0 -9.121472,3.04968 -11.373888,0 z"
       id="path3085"
       sodipodi:nodetypes="caacca"
       transform="matrix(0.65881425,0,0,0.65881284,77.430648,371.0518)"
       inkscape:export-filename="D:\FASTALLOY\VAT\TTD\2009 TTD\TTD DEC 2009\today\Hind motor\logo\Wheel\wheel.png"
       inkscape:export-xdpi="91.190002"
       inkscape:export-ydpi="91.190002" />
    <path
       sodipodi:nodetypes="caacca"
       id="path3087"
       d="m -63.083071,941.40755 c 1.448632,-3.38654 7.073288,-2.67441 10.754211,-2.54004 2.554681,0.0932 6.320082,-0.0523 7.315388,2.30237 1.423271,3.36717 -4.928098,9.79723 -4.928098,9.79723 l -7.387309,0.25139 c 0,0 -7.245274,-6.32518 -5.754192,-9.81095 z"
       style="opacity:0.63157893;fill:none;stroke:#000000;stroke-width:1px;stroke-linecap:butt;stroke-linejoin:miter;stroke-opacity:1;filter:url(#filter3887)"
       transform="matrix(0.65881425,0,0,0.65881284,77.430648,371.0518)"
       inkscape:export-filename="D:\FASTALLOY\VAT\TTD\2009 TTD\TTD DEC 2009\today\Hind motor\logo\Wheel\wheel.png"
       inkscape:export-xdpi="91.190002"
       inkscape:export-ydpi="91.190002" />
    <path
       style="opacity:0.63157893;fill:none;stroke:#000000;stroke-width:1px;stroke-linecap:butt;stroke-linejoin:miter;stroke-opacity:1;filter:url(#filter3887)"
       d="m -63.083071,941.40755 c 1.448632,-3.38654 7.073288,-2.67441 10.754211,-2.54004 2.554681,0.0932 6.320082,-0.0523 7.315388,2.30237 1.423271,3.36717 -4.928098,9.79723 -4.928098,9.79723 l -7.387309,0.25139 c 0,0 -7.245274,-6.32518 -5.754192,-9.81095 z"
       id="path3089"
       sodipodi:nodetypes="caacca"
       transform="matrix(0.65881425,0,0,0.65881284,77.430648,371.0518)"
       inkscape:export-filename="D:\FASTALLOY\VAT\TTD\2009 TTD\TTD DEC 2009\today\Hind motor\logo\Wheel\wheel.png"
       inkscape:export-xdpi="91.190002"
       inkscape:export-ydpi="91.190002" />
    <path
       sodipodi:nodetypes="caacca"
       id="path3091"
       d="m -29.609936,967.17584 c 2.280657,2.89236 -1.03581,7.49072 -2.914951,10.6587 -1.304136,2.1987 -2.977945,5.57477 -5.521822,5.32216 -3.637716,-0.36125 -6.245205,-9.01495 -6.245205,-9.01495 l 3.313738,-6.60717 c 0,0 9.02075,-3.33586 11.36824,-0.35874 z"
       style="opacity:0.63157893;fill:none;stroke:#000000;stroke-width:1px;stroke-linecap:butt;stroke-linejoin:miter;stroke-opacity:1;filter:url(#filter3887)"
       transform="matrix(0.65881425,0,0,0.65881284,77.430648,371.0518)"
       inkscape:export-filename="D:\FASTALLOY\VAT\TTD\2009 TTD\TTD DEC 2009\today\Hind motor\logo\Wheel\wheel.png"
       inkscape:export-xdpi="91.190002"
       inkscape:export-ydpi="91.190002" />
    <path
       style="opacity:0.63157893;fill:none;stroke:#000000;stroke-width:0;stroke-linecap:butt;stroke-linejoin:miter;stroke-miterlimit:4;stroke-opacity:1;stroke-dasharray:none;filter:url(#filter3887)"
       d="m -38.750325,944.67709 c 3.665908,-0.35814 5.745961,4.91607 7.398019,8.20817 1.146624,2.2848 3.084696,5.51642 1.498643,7.52131 -2.268056,2.86695 -10.95993,0.38968 -10.95993,0.38968 l -3.772409,-6.35645 c 0,0 2.062342,-9.39408 5.835677,-9.76271 z"
       id="path3093"
       sodipodi:nodetypes="caacca"
       transform="matrix(0.65881425,0,0,0.65881284,77.430648,371.0518)"
       inkscape:export-filename="D:\FASTALLOY\VAT\TTD\2009 TTD\TTD DEC 2009\today\Hind motor\logo\Wheel\wheel.png"
       inkscape:export-xdpi="91.190002"
       inkscape:export-ydpi="91.190002" />
    <path
       style="opacity:0.63157893;fill:none;stroke:#000000;stroke-width:1px;stroke-linecap:butt;stroke-linejoin:miter;stroke-opacity:1;filter:url(#filter3887)"
       d="m -45.855247,987.90953 c -1.616203,3.30984 -7.198198,2.31727 -10.867796,1.99896 -2.546816,-0.22086 -6.31479,-0.26388 -7.191076,-2.66539 -1.253061,-3.43414 5.411968,-9.53848 5.411968,-9.53848 l 7.390638,0.11843 c 0,0 6.919833,6.67965 5.256266,10.08648 z"
       id="path3095"
       sodipodi:nodetypes="caacca"
       transform="matrix(0.65881425,0,0,0.65881284,77.430648,371.0518)"
       inkscape:export-filename="D:\FASTALLOY\VAT\TTD\2009 TTD\TTD DEC 2009\today\Hind motor\logo\Wheel\wheel.png"
       inkscape:export-xdpi="91.190002"
       inkscape:export-ydpi="91.190002" />
    <path
       sodipodi:nodetypes="caacca"
       id="path3097"
       d="m -45.855247,987.90953 c -1.616203,3.30984 -7.198198,2.31727 -10.867796,1.99896 -2.546816,-0.22086 -6.31479,-0.26388 -7.191076,-2.66539 -1.253061,-3.43414 5.411968,-9.53848 5.411968,-9.53848 l 7.390638,0.11843 c 0,0 6.919833,6.67965 5.256266,10.08648 z"
       style="opacity:0.63157893;fill:none;stroke:#000000;stroke-width:1px;stroke-linecap:butt;stroke-linejoin:miter;stroke-opacity:1;filter:url(#filter3887)"
       transform="matrix(0.65881425,0,0,0.65881284,77.430648,371.0518)"
       inkscape:export-filename="D:\FASTALLOY\VAT\TTD\2009 TTD\TTD DEC 2009\today\Hind motor\logo\Wheel\wheel.png"
       inkscape:export-xdpi="91.190002"
       inkscape:export-ydpi="91.190002" />
    <path
       style="opacity:0.63157893;fill:none;stroke:#000000;stroke-width:1px;stroke-linecap:butt;stroke-linejoin:miter;stroke-opacity:1;filter:url(#filter3887)"
       d="m -70.502317,983.63155 c -3.653699,0.46651 -5.888984,-4.7438 -7.63778,-7.98556 -1.213767,-2.24985 -3.24666,-5.42267 -1.720656,-7.47363 2.182186,-2.93284 10.943593,-0.71399 10.943593,-0.71399 l 3.958931,6.24199 c 0,0 -1.78332,9.45101 -5.544088,9.93119 z"
       id="path3099"
       sodipodi:nodetypes="caacca"
       transform="matrix(0.65881425,0,0,0.65881284,77.430648,371.0518)"
       inkscape:export-filename="D:\FASTALLOY\VAT\TTD\2009 TTD\TTD DEC 2009\today\Hind motor\logo\Wheel\wheel.png"
       inkscape:export-xdpi="91.190002"
       inkscape:export-ydpi="91.190002" />
    <path
       sodipodi:type="arc"
       style="opacity:0.63157893;fill:#ffffff;fill-opacity:1;fill-rule:evenodd;stroke:#7b6d10;stroke-width:0.2;stroke-linecap:round;stroke-linejoin:round;stroke-miterlimit:4;stroke-opacity:1;stroke-dasharray:none;stroke-dashoffset:0"
       id="path3931"
       sodipodi:cx="-58.358875"
       sodipodi:cy="-8.7090979"
       sodipodi:rx="4.4683132"
       sodipodi:ry="4.4683132"
       d="m -53.890562,-8.7090979 a 4.4683132,4.4683132 0 1 1 -8.936626,0 4.4683132,4.4683132 0 1 1 8.936626,0 z"
       transform="matrix(0.78226351,0,0,0.78226184,87.755087,1012.3741)"
       inkscape:export-filename="D:\FASTALLOY\VAT\TTD\2009 TTD\TTD DEC 2009\today\Hind motor\logo\Wheel\wheel.png"
       inkscape:export-xdpi="91.190002"
       inkscape:export-ydpi="91.190002" />
    <g
       id="g3945"
       transform="matrix(1.276056,0,0,1.2760534,105.5142,-278.17992)"
       inkscape:export-filename="D:\FASTALLOY\VAT\TTD\2009 TTD\TTD DEC 2009\today\Hind motor\logo\Wheel\wheel.png"
       inkscape:export-xdpi="91.190002"
       inkscape:export-ydpi="91.190002">
      <path
         sodipodi:type="arc"
         style="opacity:0.63157893;fill:#ffffff;fill-opacity:1;fill-rule:evenodd;stroke:#7b6d10;stroke-width:0.2;stroke-linecap:round;stroke-linejoin:round;stroke-miterlimit:4;stroke-opacity:1;stroke-dasharray:none;stroke-dashoffset:0"
         id="path3941"
         sodipodi:cx="-58.358875"
         sodipodi:cy="-8.7090979"
         sodipodi:rx="4.4683132"
         sodipodi:ry="4.4683132"
         d="m -53.890562,-8.7090979 c 0,2.4677813 -2.000532,4.4683133 -4.468313,4.4683133 -2.467782,0 -4.468313,-2.000532 -4.468313,-4.4683133 0,-2.4677811 2.000531,-4.4683131 4.468313,-4.4683131 2.467781,0 4.468313,2.000532 4.468313,4.4683131 z"
         transform="matrix(0.34055239,0,0,0.34055239,-29.818801,1004.0102)" />
      <path
         transform="matrix(0.19922615,0,0,0.19922615,-38.066441,1002.7793)"
         d="m -53.890562,-8.7090979 c 0,2.4677813 -2.000532,4.4683133 -4.468313,4.4683133 -2.467782,0 -4.468313,-2.000532 -4.468313,-4.4683133 0,-2.4677811 2.000531,-4.4683131 4.468313,-4.4683131 2.467781,0 4.468313,2.000532 4.468313,4.4683131 z"
         sodipodi:ry="4.4683132"
         sodipodi:rx="4.4683132"
         sodipodi:cy="-8.7090979"
         sodipodi:cx="-58.358875"
         id="path3943"
         style="opacity:0.63157893;fill:#000000;fill-opacity:1;fill-rule:evenodd;stroke:#7b6d10;stroke-width:0.2;stroke-linecap:round;stroke-linejoin:round;stroke-miterlimit:4;stroke-opacity:1;stroke-dasharray:none;stroke-dashoffset:0"
         sodipodi:type="arc" />
    </g>
    <g
       transform="matrix(1.276056,0,0,1.2760534,112.08132,-272.0365)"
       id="g3949"
       inkscape:export-filename="D:\FASTALLOY\VAT\TTD\2009 TTD\TTD DEC 2009\today\Hind motor\logo\Wheel\wheel.png"
       inkscape:export-xdpi="91.190002"
       inkscape:export-ydpi="91.190002">
      <path
         transform="matrix(0.34055239,0,0,0.34055239,-29.818801,1004.0102)"
         d="m -53.890562,-8.7090979 c 0,2.4677813 -2.000532,4.4683133 -4.468313,4.4683133 -2.467782,0 -4.468313,-2.000532 -4.468313,-4.4683133 0,-2.4677811 2.000531,-4.4683131 4.468313,-4.4683131 2.467781,0 4.468313,2.000532 4.468313,4.4683131 z"
         sodipodi:ry="4.4683132"
         sodipodi:rx="4.4683132"
         sodipodi:cy="-8.7090979"
         sodipodi:cx="-58.358875"
         id="path3951"
         style="opacity:0.63157893;fill:#ffffff;fill-opacity:1;fill-rule:evenodd;stroke:#7b6d10;stroke-width:0.2;stroke-linecap:round;stroke-linejoin:round;stroke-miterlimit:4;stroke-opacity:1;stroke-dasharray:none;stroke-dashoffset:0"
         sodipodi:type="arc" />
      <path
         sodipodi:type="arc"
         style="opacity:0.63157893;fill:#000000;fill-opacity:1;fill-rule:evenodd;stroke:#7b6d10;stroke-width:0.2;stroke-linecap:round;stroke-linejoin:round;stroke-miterlimit:4;stroke-opacity:1;stroke-dasharray:none;stroke-dashoffset:0"
         id="path3953"
         sodipodi:cx="-58.358875"
         sodipodi:cy="-8.7090979"
         sodipodi:rx="4.4683132"
         sodipodi:ry="4.4683132"
         d="m -53.890562,-8.7090979 c 0,2.4677813 -2.000532,4.4683133 -4.468313,4.4683133 -2.467782,0 -4.468313,-2.000532 -4.468313,-4.4683133 0,-2.4677811 2.000531,-4.4683131 4.468313,-4.4683131 2.467781,0 4.468313,2.000532 4.468313,4.4683131 z"
         transform="matrix(0.19922615,0,0,0.19922615,-38.066441,1002.7793)" />
    </g>
    <g
       id="g3955"
       transform="matrix(1.276056,0,0,1.2760534,105.30235,-265.25757)"
       inkscape:export-filename="D:\FASTALLOY\VAT\TTD\2009 TTD\TTD DEC 2009\today\Hind motor\logo\Wheel\wheel.png"
       inkscape:export-xdpi="91.190002"
       inkscape:export-ydpi="91.190002">
      <path
         sodipodi:type="arc"
         style="opacity:0.63157893;fill:#ffffff;fill-opacity:1;fill-rule:evenodd;stroke:#7b6d10;stroke-width:0.2;stroke-linecap:round;stroke-linejoin:round;stroke-miterlimit:4;stroke-opacity:1;stroke-dasharray:none;stroke-dashoffset:0"
         id="path3957"
         sodipodi:cx="-58.358875"
         sodipodi:cy="-8.7090979"
         sodipodi:rx="4.4683132"
         sodipodi:ry="4.4683132"
         d="m -53.890562,-8.7090979 c 0,2.4677813 -2.000532,4.4683133 -4.468313,4.4683133 -2.467782,0 -4.468313,-2.000532 -4.468313,-4.4683133 0,-2.4677811 2.000531,-4.4683131 4.468313,-4.4683131 2.467781,0 4.468313,2.000532 4.468313,4.4683131 z"
         transform="matrix(0.34055239,0,0,0.34055239,-29.818801,1004.0102)" />
      <path
         transform="matrix(0.19922615,0,0,0.19922615,-38.066441,1002.7793)"
         d="m -53.890562,-8.7090979 c 0,2.4677813 -2.000532,4.4683133 -4.468313,4.4683133 -2.467782,0 -4.468313,-2.000532 -4.468313,-4.4683133 0,-2.4677811 2.000531,-4.4683131 4.468313,-4.4683131 2.467781,0 4.468313,2.000532 4.468313,4.4683131 z"
         sodipodi:ry="4.4683132"
         sodipodi:rx="4.4683132"
         sodipodi:cy="-8.7090979"
         sodipodi:cx="-58.358875"
         id="path3959"
         style="opacity:0.63157893;fill:#000000;fill-opacity:1;fill-rule:evenodd;stroke:#7b6d10;stroke-width:0.2;stroke-linecap:round;stroke-linejoin:round;stroke-miterlimit:4;stroke-opacity:1;stroke-dasharray:none;stroke-dashoffset:0"
         sodipodi:type="arc" />
    </g>
    <g
       transform="matrix(1.276056,0,0,1.2760534,99.158931,-271.82466)"
       id="g3961"
       inkscape:export-filename="D:\FASTALLOY\VAT\TTD\2009 TTD\TTD DEC 2009\today\Hind motor\logo\Wheel\wheel.png"
       inkscape:export-xdpi="91.190002"
       inkscape:export-ydpi="91.190002">
      <path
         transform="matrix(0.34055239,0,0,0.34055239,-29.818801,1004.0102)"
         d="m -53.890562,-8.7090979 c 0,2.4677813 -2.000532,4.4683133 -4.468313,4.4683133 -2.467782,0 -4.468313,-2.000532 -4.468313,-4.4683133 0,-2.4677811 2.000531,-4.4683131 4.468313,-4.4683131 2.467781,0 4.468313,2.000532 4.468313,4.4683131 z"
         sodipodi:ry="4.4683132"
         sodipodi:rx="4.4683132"
         sodipodi:cy="-8.7090979"
         sodipodi:cx="-58.358875"
         id="path3963"
         style="opacity:0.63157893;fill:#ffffff;fill-opacity:1;fill-rule:evenodd;stroke:#7b6d10;stroke-width:0.2;stroke-linecap:round;stroke-linejoin:round;stroke-miterlimit:4;stroke-opacity:1;stroke-dasharray:none;stroke-dashoffset:0"
         sodipodi:type="arc" />
      <path
         sodipodi:type="arc"
         style="opacity:0.63157893;fill:#000000;fill-opacity:1;fill-rule:evenodd;stroke:#7b6d10;stroke-width:0.2;stroke-linecap:round;stroke-linejoin:round;stroke-miterlimit:4;stroke-opacity:1;stroke-dasharray:none;stroke-dashoffset:0"
         id="path3965"
         sodipodi:cx="-58.358875"
         sodipodi:cy="-8.7090979"
         sodipodi:rx="4.4683132"
         sodipodi:ry="4.4683132"
         d="m -53.890562,-8.7090979 c 0,2.4677813 -2.000532,4.4683133 -4.468313,4.4683133 -2.467782,0 -4.468313,-2.000532 -4.468313,-4.4683133 0,-2.4677811 2.000531,-4.4683131 4.468313,-4.4683131 2.467781,0 4.468313,2.000532 4.468313,4.4683131 z"
         transform="matrix(0.19922615,0,0,0.19922615,-38.066441,1002.7793)" />
    </g>
  </g>
</svg>
