<?xml version="1.0" encoding="UTF-8"?>
<svg enable-background="new 0 0 751 680.95" viewBox="0 0 751 680.95" xmlns="http://www.w3.org/2000/svg">
 <path d="m375.134-.018h.213c28.014-.013 53.815,3.599 77.402,10.839 23.11,7.118 43.639,17.461 61.583,31.029l.318.213c19.125,15.443 34.237,34.713 45.337,57.807v-.053c3.742,7.666 7.07,18.947 9.981,33.846 2.383,12.131 3.552,20.632 3.504,25.503v.053c.039,20.274-3.57,42.252-10.83,65.937-5.772,18.929-11.542,32.406-17.307,40.434 6.251,7.901 10.091,13.179 11.52,15.834 .188.31.349.629.478.956 .855,1.753 1.281,6.127 1.274,13.125 .018,1.733-.194,4.213-.637,7.438-.603,5.17-1.434,8.465-2.495,9.882-.371.598-.796,1.164-1.274,1.7l-.053.107-17.413,19.021c-2.142,15.96-3.486,24.814-4.035,26.566v-.105c-.299,1.053-.759,2.045-1.38,2.975l-2.336,3.507 .106-.106c-.282.442-.583.868-.903,1.275-.037.033-.072.069-.105.106l-.053.053c-.036.033-.073.068-.107.106-2.726,2.24-20.848,10.458-54.361,24.654-.035,7.537 0,12.549.105,15.035 .044,1.069-.08,2.114-.371,3.136l133.305-62.378c11.51-10.775 18.464-16.708 20.863-17.799h.054l.053-.053c2.438-1.19 5.498-2.235 9.184-3.135 .233-.057.464-.092.691-.105 3.254-.75 5.749-1.104 7.484-1.063h.054c8.79-.002 15.214,1.557 19.271,4.675 .055.031.107.066.159.107 2.058,1.235 4.693,4.211 7.909,8.925 .102.15.191.311.266.479 5.653,8.296 9.192,15.752 10.618,22.368 .618,1.187 1.929,2.798 3.929,4.836l.053.053c.205-.097.418-.186.638-.266h.053c.053-.018.105-.035.159-.053 4.235-1.342 10.5-2.015 18.793-2.02 14.354-.084 25.679,6.079 33.977,18.491 6.282,9.352 9.432,19.836 9.45,31.453 .009,21.776-8.095,39.947-24.315,54.514-14.022,12.603-28.392,18.802-43.107,18.597h-.053c-10.511.004-20.014-3.29-28.509-9.883-10.087-7.817-15.077-17.594-14.971-29.328v-.055c.006-2.459.253-4.779.744-6.96-3.36,2.177-7.431,4.656-12.211,7.438-1.28,1.46-4.784,2.417-10.512,2.869-2.717.231-4.946.339-6.688.319h-.054c-5.773-.002-8.958-.092-9.556-.266h-.106l-.371-.106c-.714-.095-1.475-.308-2.283-.638l-105.276,42.985 131.553,51.432c16.724,2.978 25.907,4.536 27.553,4.676 1.935-.125 13.738-1.578 35.411-4.356h-.16l.584-.054 .318-.053c3.801-.223 6.474-.329 8.018-.319h.053c10.191-.087 19.677,3.419 28.455,10.521 .038.031.073.067.105.105l.319.266 .053.055c9.314,7.819 13.898,16.568 13.75,26.246 .171,1.167-.431,4.372-1.805,9.618l-.053.053c-1.456,5.384-2.889,9.439-4.301,12.167v-.054c-.209.404-.439.793-.69,1.17-.022.034-.04.069-.053.105-25.912,36.986-39.38,56.132-40.4,57.436-.136.164-.277.323-.425.479l-.053.053-1.062,1.223-.213.213-.318.425c-1.47,1.473-2.852,2.712-4.141,3.719-.236.184-.484.344-.744.479-2.454,1.838-6.842,3.945-13.165,6.323-.254.09-.502.162-.743.213-7.748,2.706-14.153,4.017-19.219,3.932h-.053c-.472-.002-.95-.037-1.434-.106-10.738-1.554-17.604-3.521-20.599-5.897-1.249-.84-2.275-1.902-3.078-3.188v-.053c-3.458-5.607-7.457-11.451-11.999-17.534-8.476-11.409-18.633-20.371-30.472-26.885l-208.85-87.03-208.85,87.03c-11.84,6.514-21.998,15.476-30.473,26.885-4.541,6.083-8.54,11.927-11.998,17.534v.053c-.803,1.286-1.829,2.349-3.08,3.188-2.995,2.377-9.86,4.344-20.598,5.897-.484.069-.962.104-1.434.106h-.049c-5.065.085-11.471-1.226-19.218-3.932-.244-.053-.491-.123-.744-.213-6.324-2.378-10.712-4.485-13.166-6.323-.258-.135-.506-.295-.743-.479-1.291-1.007-2.672-2.246-4.141-3.719-.111-.143-.218-.284-.318-.425-.073-.074-.143-.146-.212-.213l-1.062-1.223-.053-.053c-.147-.155-.29-.315-.425-.479-1.014-1.295-14.481-20.44-40.4-57.436-.014-.036-.031-.071-.053-.105-.252-.377-.482-.766-.691-1.17v.054c-1.412-2.728-2.845-6.783-4.3-12.167l-.053-.053c-1.374-5.243-1.976-8.448-1.805-9.618-.149-9.677 4.434-18.426 13.75-26.246l.053-.055c.143-.132.285-.255.425-.371 8.777-7.102 18.263-10.607 28.455-10.521h.053c1.543-.01 4.215.097 8.016.319 .106.016.212.033.318.053 .186.011.381.029.585.054h-.16c21.669,2.778 33.472,4.231 35.41,4.356 1.644-.139 10.827-1.697 27.553-4.676l131.554-51.432-105.275-42.984c-.803.326-1.564.539-2.282.638-.131.041-.256.076-.372.106h-.106c-.596.174-3.781.264-9.556.266h-.053c-1.698.019-3.856-.088-6.478-.319-5.84-.438-9.415-1.395-10.724-2.869-4.797-2.784-8.867-5.263-12.21-7.438 .488,2.169.736,4.488.743,6.96v.055c.106,11.734-4.885,21.511-14.972,29.328-8.495,6.593-17.998,9.887-28.508,9.883h-.053c-14.716.205-29.086-5.994-43.108-18.597-16.217-14.568-24.322-32.739-24.312-54.515 .018-11.617 3.167-22.102 9.449-31.453 8.298-12.412 19.624-18.575 33.977-18.491 8.294.005 14.559.678 18.793,2.02 .053.016.106.033.16.053 .242.074.472.162.689.266l.053-.053c2.002-2.034 3.312-3.646 3.929-4.836 1.426-6.617 4.965-14.073 10.618-22.368 .076-.168.165-.328.266-.479 3.217-4.716 5.854-7.691 7.91-8.925 .051-.04.104-.075.16-.107 4.057-3.119 10.48-4.677 19.271-4.675h.053c1.737-.041 4.231.313 7.486,1.063 .227.013.457.048.689.105 3.687.9 6.748,1.945 9.185,3.135 2.281.948 9.271,6.899 20.97,17.852l133.305,62.378c-.292-1.021-.417-2.065-.371-3.136 .105-2.486.14-7.498.106-15.035-33.549-14.209-51.671-22.427-54.363-24.654l-.053-.053c-.032-.037-.069-.073-.106-.106-.369-.442-.705-.903-1.009-1.382l.105.106-2.336-3.507c-.621-.93-1.082-1.922-1.38-2.975v.105c-.548-1.752-1.893-10.624-4.035-26.619l-17.414-18.968-.053-.107c-.479-.536-.904-1.102-1.274-1.7-1.062-1.42-1.893-4.713-2.495-9.882-.438-3.211-.65-5.691-.637-7.438v-.053c-.005-6.966.419-11.324 1.273-13.071 .129-.325.289-.627.478-.903 1.431-2.687 5.288-8 11.574-15.939-5.788-8.001-11.574-21.461-17.361-40.381-7.259-23.684-10.87-45.663-10.829-65.937v-.053c-.049-4.87 1.12-13.371 3.504-25.503 2.911-14.899 6.238-26.18 9.98-33.846v.053c11.1-23.094 26.212-42.364 45.337-57.807l.318-.213c17.945-13.568 38.473-23.912 61.583-31.029 23.588-7.24 49.389-10.853 77.403-10.839l.214-.001z" fill="#fff" fill-rule="evenodd"/>
 <path d="m551.81 159.27c-1.345 38.681-10.794 71.941-28.348 99.783v13.602l13.483 16.79v12.221l-20.704 22.315-3.928 29.117-60.31 25.504v27.203c-1.062 0.566-2.124 1.168-3.186 1.807v19.659c-23.995 12.964-48.629 20.226-73.898 21.784-25.27-1.559-49.903-8.82-73.898-21.784v-19.659c-1.062-0.639-2.124-1.24-3.186-1.807v-27.203l-60.308-25.505-3.928-29.117-20.705-22.315v-12.221l13.484-16.79v-13.602c-17.555-27.841-27.004-61.102-28.349-99.783 2.194-42.293 19.112-75.837 50.752-100.63 31.782-24.865 73.828-37.333 126.14-37.405 52.31 0.072 94.355 12.54 126.14 37.405 31.641 24.797 48.559 58.341 50.753 100.63zm-190.06 143.67-14.227 53.025 6.158 14.666h42.471l6.158-14.666-14.228-53.025-13.166-1.913-13.166 1.913z" fill="#333" fill-rule="evenodd"/>
 <path d="m665.1 439.7c2.762-4.109 1.841-8.714-2.76-13.814-4.035-4.393-8.955-7.084-14.759-8.076-6.088-0.992-11.75 0.07-16.988 3.188l-14.228 10.627h-10.725l-5.732-3.612-164.68 67.263 183.05 71.516 33.233 5.526 38.329-4.676c9.839-1.275 17.483 1.204 22.935 7.438 5.38 6.163 5.875 12.539 1.486 19.127l-39.179 55.896c-4.035 4.604-10.157 7.544-18.368 8.819-8.494 1.346-14.512-0.106-18.051-4.357l-21.873-28.584-22.828-17.429-219.04-91.493-219.04 91.493-22.828 17.429-21.873 28.584c-3.539 4.251-9.556 5.703-18.05 4.357-8.211-1.275-14.334-4.215-18.369-8.819l-39.178-55.896c-4.389-6.588-3.894-12.964 1.486-19.127 5.451-6.234 13.096-8.714 22.935-7.438l38.33 4.676 33.233-5.526 183-71.516-164.63-67.265-5.733 3.612h-10.725l-14.227-10.627c-5.238-3.117-10.901-4.18-16.988-3.188-5.805 0.992-10.725 3.684-14.759 8.076-4.601 5.101-5.521 9.705-2.76 13.814 0.778 1.134 1.981 2.728 3.609 4.782 1.133 1.842 1.487 3.612 1.062 5.313-2.124 8.218-6.724 13.531-13.803 15.939-6.299 2.125-13.484 1.771-21.554-1.063-15.644-7.581-25.872-19.766-30.685-36.556-4.955-17.285-1.168-30.392 11.36-39.317 3.681-2.622 10.299-2.835 19.855-0.638 9.343 2.196 15.29 2.196 17.837 0l13.591-14.027c7.909-32.24 22.879-34.932 44.913-8.076l243.99 114.13 243.99-114.13c22.014-26.85 36.985-24.158 44.912 8.076l13.592 14.027c2.548 2.196 8.494 2.196 17.838 0 9.556-2.197 16.174-1.984 19.854 0.638 12.529 8.926 16.315 22.032 11.36 39.317-4.813 16.79-15.041 28.975-30.685 36.556-8.07 2.833-15.255 3.188-21.554 1.063-7.078-2.408-11.68-7.722-13.803-15.939-0.425-1.701-0.071-3.472 1.062-5.313 1.63-2.052 2.833-3.646 3.612-4.78z" fill="#333" fill-rule="evenodd"/>
 <path d="m314.186,223.82 .033-.017c4.378-2.599 8.891-4.06 13.539-4.384 8.947-.776 17.152,2.562 24.615,10.013 6.696,6.684 10.044,14.754 10.045,24.21-.012,9.571-3.372,17.653-10.079,24.244h.017c-4.471,4.396-11.961,11.127-22.47,20.192-8.665,7.849-14.741,14.59-18.228,20.226-.617,1.006-1.481,1.709-2.595,2.109s-2.218.397-3.326,0-1.978-1.103-2.595-2.109c-3.487-5.635-9.563-12.377-18.228-20.226-10.509-9.065-17.999-15.796-22.47-20.192h.017c-6.708-6.591-10.067-14.672-10.079-24.244 .001-9.457 3.349-17.526 10.045-24.21 7.462-7.451 15.667-10.789 24.615-10.013 4.647.324 9.16,1.785 13.539,4.384l.033.017c2.182,1.272 4.443,2.927 6.786,4.965 2.342-2.038 4.603-3.693 6.786-4.965z" fill="#fff" fill-rule="evenodd"/>
 <path d="m318.443,230.96c3.215-1.915 6.524-3.006 9.929-3.271 6.563-.439 12.606,2.096 18.128,7.605 5.07,5.066 7.603,11.183 7.601,18.349 .008,7.234-2.521,13.339-7.584,18.316v.017c-4.407,4.328-11.797,10.965-22.17,19.91-.016.021-.033.038-.05.05-7.371,6.676-13.003,12.631-16.898,17.867-3.895-5.236-9.527-11.191-16.898-17.867-.017-.013-.034-.03-.05-.05-10.373-8.945-17.763-15.582-22.17-19.91v-.017c-5.064-4.977-7.592-11.082-7.584-18.316-.002-7.166 2.531-13.283 7.601-18.349 5.522-5.509 11.565-8.044 18.128-7.605 3.405.265 6.714,1.356 9.929,3.271l.017.017c2.736,1.609 5.63,3.934 8.682,6.975 .647.651 1.429.978 2.345.979s1.698-.329 2.345-.979c3.052-3.041 5.946-5.365 8.682-6.975l.017-.017z" fill="#c00" fill-rule="evenodd"/>
 <path d="m448.586,223.82 .033-.017c4.378-2.599 8.891-4.06 13.538-4.384 8.947-.776 17.152,2.562 24.615,10.013 6.695,6.684 10.044,14.754 10.045,24.21-.012,9.571-3.372,17.653-10.079,24.244h.018c-4.472,4.396-11.961,11.127-22.47,20.192-8.665,7.849-14.741,14.59-18.229,20.226-.617,1.006-1.481,1.709-2.595,2.109s-2.218.397-3.326,0-1.978-1.103-2.595-2.109c-3.487-5.635-9.563-12.377-18.229-20.226-10.509-9.065-17.998-15.796-22.47-20.192h.018c-6.707-6.591-10.067-14.672-10.079-24.244 .001-9.457 3.35-17.526 10.045-24.21 7.463-7.451 15.668-10.789 24.615-10.013 4.647.324 9.16,1.785 13.538,4.384l.033.017c2.183,1.272 4.444,2.927 6.786,4.965 2.344-2.038 4.605-3.693 6.788-4.965z" fill="#fff" fill-rule="evenodd"/>
 <path d="m452.844,230.96c3.214-1.915 6.524-3.006 9.929-3.271 6.563-.439 12.606,2.096 18.128,7.605 5.07,5.066 7.604,11.183 7.602,18.349 .008,7.234-2.521,13.339-7.585,18.316v.017c-4.407,4.328-11.797,10.965-22.169,19.91-.017.021-.033.038-.051.05-7.371,6.676-13.003,12.631-16.897,17.867-3.895-5.236-9.526-11.191-16.897-17.867-.018-.013-.034-.03-.051-.05-10.372-8.945-17.762-15.582-22.169-19.91v-.017c-5.064-4.977-7.593-11.082-7.585-18.316-.002-7.166 2.531-13.283 7.602-18.349 5.521-5.509 11.564-8.044 18.128-7.605 3.404.265 6.715,1.356 9.929,3.271l.017.017c2.736,1.609 5.631,3.934 8.683,6.975 .646.651 1.429.978 2.345.979s1.698-.329 2.345-.979c3.052-3.041 5.946-5.365 8.683-6.975l.013-.017z" fill="#c00" fill-rule="evenodd"/>
</svg>
