<?xml version="1.0" standalone="no"?>
<!DOCTYPE svg PUBLIC "-//W3C//DTD SVG 20010904//EN"
 "http://www.w3.org/TR/2001/REC-SVG-20010904/DTD/svg10.dtd">
<svg version="1.0" xmlns="http://www.w3.org/2000/svg"
 width="200.000000pt" height="200.000000pt" viewBox="0 0 200.000000 200.000000"
 preserveAspectRatio="xMidYMid meet">
<metadata>
Created by potrace 1.14, written by Peter Selinger 2001-2017
</metadata>
<g transform="translate(0.000000,200.000000) scale(0.100000,-0.100000)"
fill="#000000" stroke="none">
<path d="M950 1591 l0 -91 -154 0 c-167 0 -209 -9 -280 -58 -66 -46 -103 -105
-142 -229 -30 -96 -38 -113 -56 -113 -76 0 -158 -57 -194 -134 -20 -44 -24
-66 -24 -161 0 -129 9 -170 53 -227 41 -53 105 -86 185 -94 l62 -7 0 -78 0
-79 90 0 90 0 0 80 0 80 185 0 184 0 3 -77 3 -78 45 0 45 0 0 675 0 675 -47 3
-48 3 0 -90z m0 -351 l0 -140 -236 0 c-220 0 -235 1 -230 18 3 9 12 44 19 78
17 72 26 91 64 125 57 53 77 58 236 59 l147 0 0 -140z m0 -450 l0 -190 -310 0
c-345 0 -364 3 -400 62 -27 44 -29 214 -4 257 35 60 39 60 392 61 l322 0 0
-190z"/>
<path d="M432 860 c-49 -46 -39 -113 21 -145 l37 -20 37 20 c21 11 42 32 47
46 20 59 -22 119 -84 119 -23 0 -44 -8 -58 -20z"/>
<path d="M1634 1381 c-23 -10 -54 -36 -70 -57 -27 -34 -29 -45 -29 -121 0 -69
-3 -86 -20 -103 l-20 -20 -89 89 c-77 78 -88 92 -76 106 15 19 18 16 -47 49
-65 32 -74 32 -103 1 l-24 -25 35 -65 c30 -56 36 -62 49 -50 14 13 27 4 105
-75 l89 -90 -142 -143 c-149 -150 -160 -169 -122 -207 38 -38 57 -27 207 122
134 133 143 140 143 112 0 -25 21 -50 128 -157 132 -130 149 -140 195 -115 33
17 46 39 47 78 0 32 -12 47 -123 158 -108 108 -126 122 -156 122 l-34 0 22 24
c21 23 28 24 90 19 98 -8 161 27 196 110 15 37 20 108 8 120 -3 4 -39 -24 -79
-63 -73 -71 -95 -81 -137 -58 -32 17 -46 39 -47 73 0 25 14 44 70 100 38 37
67 72 64 77 -9 15 -88 8 -130 -11z"/>
</g>
</svg>
