<?xml version="1.0" standalone="no"?>
<!DOCTYPE svg PUBLIC "-//W3C//DTD SVG 20010904//EN"
 "http://www.w3.org/TR/2001/REC-SVG-20010904/DTD/svg10.dtd">
<svg version="1.0" xmlns="http://www.w3.org/2000/svg"
 width="512.000000pt" height="512.000000pt" viewBox="0 0 512.000000 512.000000"
 preserveAspectRatio="xMidYMid meet">
<metadata>
Created by potrace 1.14, written by Peter Selinger 2001-2017
</metadata>
<g transform="translate(0.000000,512.000000) scale(0.100000,-0.100000)"
fill="#000000" stroke="none">
<path d="M2370 5114 c-506 -45 -957 -217 -1357 -515 -126 -94 -398 -366 -492
-492 -266 -356 -428 -747 -498 -1197 -24 -161 -24 -539 1 -700 47 -306 125
-552 255 -808 133 -259 258 -429 476 -647 229 -230 399 -352 680 -490 179 -88
296 -132 478 -180 757 -199 1559 -40 2195 437 119 89 339 302 437 423 369 455
574 1033 575 1620 0 574 -208 1159 -575 1610 -98 121 -318 334 -437 423 -353
265 -746 429 -1188 497 -101 15 -453 28 -550 19z m502 -1111 l3 -347 230 -133
c127 -73 238 -135 248 -139 11 -3 116 51 308 161 160 91 295 165 300 163 5 -2
76 -120 159 -263 105 -182 146 -262 137 -267 -7 -4 -140 -81 -297 -170 l-285
-164 -3 -285 -2 -285 295 -170 c162 -93 295 -172 295 -176 0 -7 -287 -508
-299 -520 -4 -5 -128 62 -276 148 -149 86 -282 162 -297 170 -25 13 -36 8
-270 -124 l-243 -138 -3 -347 -2 -347 -310 0 -310 0 -2 347 -3 346 -244 139
-244 139 -301 -172 c-165 -94 -302 -167 -304 -163 -2 5 -70 124 -152 264 -123
212 -146 257 -134 266 8 6 142 85 299 175 l285 164 0 285 0 286 -285 164
c-158 90 -292 168 -300 174 -11 9 15 59 135 266 82 140 150 259 152 264 2 4
139 -69 304 -163 l301 -172 246 143 247 142 0 343 0 343 310 0 310 0 2 -347z"/>
</g>
</svg>
