<?xml version="1.0" standalone="no"?>
<!DOCTYPE svg PUBLIC "-//W3C//DTD SVG 20010904//EN"
 "http://www.w3.org/TR/2001/REC-SVG-20010904/DTD/svg10.dtd">
<svg version="1.0" xmlns="http://www.w3.org/2000/svg"
 width="200.000000pt" height="200.000000pt" viewBox="0 0 200.000000 200.000000"
 preserveAspectRatio="xMidYMid meet">
<metadata>
Created by potrace 1.14, written by Peter Selinger 2001-2017
</metadata>
<g transform="translate(0.000000,200.000000) scale(0.100000,-0.100000)"
fill="#000000" stroke="none">
<path d="M1259 1986 c-50 -18 -105 -53 -128 -82 l-19 -24 -283 0 c-159 0 -304
-5 -329 -11 -49 -11 -96 -49 -112 -89 -28 -71 0 -157 64 -195 31 -19 54 -20
344 -23 l312 -3 45 -43 c133 -128 357 -88 445 80 6 12 8 24 5 28 -3 3 -50 6
-103 6 -66 0 -101 4 -108 13 -18 22 -24 84 -12 121 14 42 22 45 143 49 l87 2
-18 33 c-63 118 -214 181 -333 138z"/>
<path d="M583 1370 c-117 -24 -176 -87 -228 -240 l-22 -65 -64 -5 c-111 -9
-145 -45 -140 -149 1 -14 17 -40 41 -62 34 -33 37 -39 24 -50 -9 -7 -27 -36
-41 -63 -24 -46 -27 -65 -31 -197 -5 -160 3 -206 44 -238 23 -18 24 -23 24
-144 0 -160 -3 -157 157 -157 147 0 153 5 153 125 l0 84 33 -7 c42 -9 892 -9
935 0 l32 7 0 -84 c0 -120 6 -125 153 -125 159 0 157 -2 157 155 l0 123 30 30
30 30 0 174 c0 166 -1 176 -25 225 -15 28 -32 57 -40 63 -12 10 -7 18 25 49
36 34 40 43 40 87 0 84 -36 115 -139 124 l-64 5 -22 65 c-45 133 -83 181 -175
224 -43 20 -62 21 -445 23 -220 1 -419 -2 -442 -7z m865 -75 c45 -19 79 -50
99 -90 13 -24 113 -311 113 -322 0 -2 -297 -3 -660 -3 -363 0 -660 1 -660 3 0
11 100 298 113 322 20 39 54 70 97 89 53 23 843 23 898 1z m-1023 -619 c121
-51 81 -236 -50 -236 -130 0 -171 184 -52 235 41 18 60 18 102 1z m1250 0
c121 -51 81 -236 -50 -236 -130 0 -171 184 -52 235 41 18 60 18 102 1z m-327
-52 c15 -4 22 -14 22 -30 0 -16 -7 -25 -22 -29 -13 -3 -178 -4 -368 -3 l-345
3 -3 24 c-2 13 2 28 10 32 15 10 671 12 706 3z m-43 -154 l0 -25 -303 -3
c-263 -2 -303 0 -308 13 -4 8 -4 22 0 30 5 13 45 15 308 13 l303 -3 0 -25z"/>
</g>
</svg>
