<?xml version="1.0" standalone="no"?>
<!DOCTYPE svg PUBLIC "-//W3C//DTD SVG 20010904//EN"
 "http://www.w3.org/TR/2001/REC-SVG-20010904/DTD/svg10.dtd">
<svg version="1.0" xmlns="http://www.w3.org/2000/svg"
 width="256.000000pt" height="256.000000pt" viewBox="0 0 256.000000 256.000000"
 preserveAspectRatio="xMidYMid meet">
<metadata>
Created by potrace 1.14, written by Peter Selinger 2001-2017
</metadata>
<g transform="translate(0.000000,256.000000) scale(0.100000,-0.100000)"
fill="#000000" stroke="none">
<path d="M708 1982 c-14 -9 -63 -66 -109 -127 -168 -223 -241 -315 -259 -325
-10 -5 -54 -10 -97 -11 -132 -1 -193 -12 -214 -38 -18 -21 -19 -46 -19 -310
l0 -287 28 -27 c27 -26 32 -27 145 -27 105 0 117 2 117 18 0 33 49 122 95 171
63 67 146 104 240 105 166 2 285 -93 348 -277 6 -16 27 -17 298 -15 l291 3 19
54 c34 97 117 183 210 217 71 26 183 23 250 -8 99 -45 171 -126 200 -225 l12
-43 117 0 c115 0 117 0 144 29 l27 29 -3 158 c-3 154 -4 161 -33 219 -77 154
-216 233 -439 251 -76 6 -93 10 -118 33 -16 14 -102 113 -191 220 -100 121
-175 202 -197 213 -32 17 -67 18 -435 18 -364 0 -402 -2 -427 -18z m372 -317
l0 -145 -245 0 c-135 0 -245 3 -245 7 0 8 160 220 193 256 26 27 27 27 162 27
l135 0 0 -145z m403 136 c13 -5 74 -71 136 -145 l111 -136 -225 0 -225 0 0
145 0 145 89 0 c49 0 101 -4 114 -9z"/>
<path d="M595 1001 c-105 -26 -175 -114 -175 -221 0 -128 92 -220 220 -220 73
0 114 16 159 61 45 45 64 92 63 160 0 101 -64 184 -164 214 -56 16 -59 16
-103 6z"/>
<path d="M1885 1003 c-46 -10 -82 -28 -113 -57 -110 -102 -100 -274 20 -354
56 -37 166 -44 224 -14 130 67 166 233 74 344 -45 55 -145 94 -205 81z"/>
</g>
</svg>
