<?xml version="1.0" standalone="no"?>
<!DOCTYPE svg PUBLIC "-//W3C//DTD SVG 20010904//EN"
 "http://www.w3.org/TR/2001/REC-SVG-20010904/DTD/svg10.dtd">
<svg version="1.0" xmlns="http://www.w3.org/2000/svg"
 width="400.000000pt" height="388.000000pt" viewBox="0 0 400.000000 388.000000"
 preserveAspectRatio="xMidYMid meet">
<metadata>
Created by potrace 1.14, written by Peter Selinger 2001-2017
</metadata>
<g transform="translate(0.000000,388.000000) scale(0.100000,-0.100000)"
fill="#000000" stroke="none">
<path d="M1828 3839 c-416 -37 -817 -214 -1131 -501 l-59 -53 117 -93 116 -93
72 61 c204 174 466 306 716 360 437 95 865 14 1236 -235 60 -40 139 -100 175
-133 l66 -60 107 96 108 95 -33 34 c-18 19 -67 62 -108 96 -391 316 -889 470
-1382 426z"/>
<path d="M528 3213 c-32 -35 -124 -163 -165 -228 -215 -352 -318 -773 -283
-1170 59 -688 447 -1272 1050 -1579 263 -135 500 -194 807 -203 263 -8 435 16
673 96 925 309 1477 1291 1264 2248 -52 233 -152 470 -276 656 -74 109 -149
206 -161 207 -4 0 -68 -59 -142 -131 l-134 -131 48 -61 c117 -149 211 -325
271 -506 22 -64 42 -140 46 -168 8 -60 6 -61 -76 -42 -43 10 -446 79 -461 79
-4 0 0 -21 8 -47 11 -35 15 -94 14 -219 l0 -172 96 -17 c121 -22 411 -90 420
-99 24 -24 -71 -328 -152 -484 -163 -316 -448 -584 -764 -717 -120 -51 -212
-44 -298 21 -65 49 -71 76 -65 285 l5 186 -59 -9 c-80 -12 -249 -15 -357 -5
l-89 8 7 -183 c8 -202 6 -216 -52 -269 -53 -50 -92 -64 -178 -64 -78 0 -85 2
-199 58 -169 82 -283 163 -422 302 -183 182 -299 368 -378 606 -38 114 -71
257 -62 266 8 9 300 77 417 98 l96 17 -10 56 c-12 73 -14 296 -4 345 l8 38
-48 -6 c-26 -4 -140 -25 -252 -47 -112 -21 -206 -37 -209 -33 -3 3 8 60 25
128 50 199 134 374 265 548 37 50 70 94 73 99 4 7 -245 261 -264 268 -4 1 -19
-10 -33 -25z m211 -1100 c6 -21 11 -43 11 -49 0 -6 -30 -19 -67 -28 -38 -9
-76 -19 -85 -22 -13 -4 -19 4 -27 33 -18 65 -16 68 52 85 98 25 105 24 116
-19z m2573 -9 l109 -26 -6 -32 c-4 -17 -11 -47 -16 -67 l-9 -36 -113 27 c-61
15 -111 30 -111 34 11 59 28 126 32 126 3 0 55 -12 114 -26z m-2536 -180 l6
-40 -74 -17 c-40 -10 -78 -17 -84 -17 -10 0 -40 89 -32 95 2 1 39 11 83 22 89
22 90 21 101 -43z"/>
<path d="M1275 2376 c-63 -30 -97 -66 -131 -141 -25 -52 -29 -75 -32 -180 -5
-143 12 -396 34 -503 35 -174 107 -267 266 -345 327 -160 854 -150 1201 25
134 67 201 155 233 307 19 96 35 453 24 567 -11 116 -31 164 -91 218 -88 79
-59 76 -798 76 l-656 0 -50 -24z m807 -107 c130 -27 254 -120 315 -236 43 -82
57 -149 51 -255 -5 -77 -11 -99 -43 -164 -62 -127 -168 -214 -300 -249 -313
-81 -617 196 -567 518 40 260 291 439 544 386z"/>
<path d="M1883 2132 c-144 -51 -233 -191 -221 -346 10 -118 80 -221 187 -273
49 -24 68 -28 146 -28 79 0 97 4 143 28 206 108 250 372 90 536 -87 89 -232
123 -345 83z"/>
</g>
</svg>
