<?xml version="1.0" encoding="UTF-8"?>
<!DOCTYPE svg  PUBLIC '-//W3C//DTD SVG 1.1//EN'  'http://www.w3.org/Graphics/SVG/1.1/DTD/svg11.dtd'>
<svg enable-background="new 0 0 1133.2827 1027.9785" version="1.1" viewBox="0 0 1133.2827 1027.9785" xml:space="preserve" xmlns="http://www.w3.org/2000/svg">
		<radialGradient id="p" cx="566.61" cy="511.89" r="437.95" gradientUnits="userSpaceOnUse">
			<stop stop-color="#F6A500" offset="0"/>
			<stop stop-color="#F09600" offset=".1349"/>
			<stop stop-color="#E07000" offset=".393"/>
			<stop stop-color="#C73201" offset=".7445"/>
			<stop stop-color="#B30101" offset="1"/>
		</radialGradient>
		<path d="m566.26 993.91c-140.35-112.23-296.13-243.92-401.5-376.38-110.8-139.28-151.96-261.67-125.85-374.15 15.088-64.985 45.838-116.7 91.393-153.7 41.864-34.003 95.403-54.047 154.83-57.964 8.0587-0.5319 16.103-0.8009 23.907-0.8009 108.37 0 192.31 52.25 242.74 151.1l14.164 27.766 14.156-27.771c49.997-98.102 132.5-152.13 232.29-152.13 10.519 0 21.378 0.5971 32.274 1.7746 128.89 13.93 219.42 86.594 248.38 199.36 28.193 109.78-11.219 236.78-117.14 377.49-89.73 119.2-227.52 248.82-409.65 385.4z" fill="url(#p)"/>
			<radialGradient id="q" cx="566.64" cy="513.99" r="526.23" gradientUnits="userSpaceOnUse">
				<stop stop-color="#F6A500" offset="0"/>
				<stop stop-color="#F09600" offset=".1349"/>
				<stop stop-color="#E07000" offset=".393"/>
				<stop stop-color="#C73201" offset=".7445"/>
				<stop stop-color="#B30101" offset="1"/>
			</radialGradient>
			<path d="m812.4 45.777c9.9503 0 20.234 0.566 30.566 1.6825 60.013 6.4861 112.98 26.914 153.18 59.076 40.529 32.424 67.954 75.637 81.514 128.44 13.727 53.452 10.5 111.91-9.593 173.75-19.322 59.47-54.599 123.47-104.85 190.22-87.212 115.85-220.6 241.89-396.65 374.84-137.11-109.97-287.36-237.92-389.37-366.16-107.58-135.24-147.75-253.21-122.8-360.66 14.271-61.462 43.182-110.23 85.932-144.95 39.295-31.917 89.731-50.743 145.85-54.442 7.7086-0.5081 15.4-0.7657 22.867-0.766 52.98 0 99.639 12.913 138.68 38.381 36.612 23.883 66.857 58.89 89.896 104.05l28.33 55.53 28.307-55.541c22.513-44.172 51.838-79.012 87.163-103.56 38.104-26.473 82.169-39.897 130.97-39.897m0-31.788c-116.35 0-199.13 67.943-246.46 160.81-49.444-96.916-133.84-159.78-256.9-159.77-8.144 0-16.466 0.2758-24.95 0.8348-122.39 8.0675-227.53 81.256-260.66 223.93-59.587 256.64 222.46 518.99 542.51 774.21 340.37-253.49 605.92-540 542.51-786.92-30.936-120.46-128.23-196.75-262.07-211.21-11.634-1.2574-22.949-1.8667-33.981-1.8667z" fill="url(#q)"/>
	<defs>
		<filter id="m" x="67.874" y="46.936" width="1000.3" height="214.74" filterUnits="userSpaceOnUse">
			<feColorMatrix values="1 0 0 0 0  0 1 0 0 0  0 0 1 0 0  0 0 0 1 0"/>
		</filter>
	</defs>
	<mask id="r" x="67.8743" y="46.936" width="1000.2525" height="214.7434" maskUnits="userSpaceOnUse">
		<g filter="url(#m)">
				<linearGradient id="s" x1="305.93" x2="305.93" y1="46.936" y2="261.68" gradientUnits="userSpaceOnUse">
					<stop stop-color="#fff" offset="0"/>
					<stop stop-color="#E7B0B0" offset=".281"/>
					<stop stop-color="#CB5353" offset=".6342"/>
					<stop stop-color="#BA1818" offset=".882"/>
					<stop stop-color="#B30101" offset="1"/>
				</linearGradient>
				<path d="m67.874 261.68c0-118.6 106.58-214.74 238.05-214.74s238.05 96.144 238.05 214.74c1e-4 -143.16-476.11-143.16-476.11 0z" fill="url(#s)"/>
				<linearGradient id="t" x1="830.07" x2="830.07" y1="46.936" y2="261.68" gradientUnits="userSpaceOnUse">
					<stop stop-color="#fff" offset="0"/>
					<stop stop-color="#E7B0B0" offset=".281"/>
					<stop stop-color="#CB5353" offset=".6342"/>
					<stop stop-color="#BA1818" offset=".882"/>
					<stop stop-color="#B30101" offset="1"/>
				</linearGradient>
				<path d="m592.02 261.68c0-118.6 106.58-214.74 238.05-214.74s238.05 96.144 238.05 214.74c1e-4 -143.16-476.11-143.16-476.11 0z" fill="url(#t)"/>
		</g>
	</mask>
	<g mask="url(#r)">
		<linearGradient id="u" x1="305.93" x2="305.93" y1="46.936" y2="261.68" gradientUnits="userSpaceOnUse">
			<stop stop-color="#fff" offset="0"/>
			<stop stop-color="#FBF2F2" offset=".0415"/>
			<stop stop-color="#E29D9D" offset=".3159"/>
			<stop stop-color="#CE5A5A" offset=".5585"/>
			<stop stop-color="#BF2A2A" offset=".7602"/>
			<stop stop-color="#B60C0C" offset=".9133"/>
			<stop stop-color="#B30101" offset="1"/>
		</linearGradient>
		<path d="m67.874 261.68c0-118.6 106.58-214.74 238.05-214.74s238.05 96.144 238.05 214.74c1e-4 -143.16-476.11-143.16-476.11 0z" fill="url(#u)"/>
		<linearGradient id="v" x1="830.07" x2="830.07" y1="46.936" y2="261.68" gradientUnits="userSpaceOnUse">
			<stop stop-color="#fff" offset="0"/>
			<stop stop-color="#FBF2F2" offset=".0415"/>
			<stop stop-color="#E29D9D" offset=".3159"/>
			<stop stop-color="#CE5A5A" offset=".5585"/>
			<stop stop-color="#BF2A2A" offset=".7602"/>
			<stop stop-color="#B60C0C" offset=".9133"/>
			<stop stop-color="#B30101" offset="1"/>
		</linearGradient>
		<path d="m592.02 261.68c0-118.6 106.58-214.74 238.05-214.74s238.05 96.144 238.05 214.74c1e-4 -143.16-476.11-143.16-476.11 0z" fill="url(#v)"/>
	</g>
	<defs>
			<filter id="n" x="658.42" y="377.41" width="426.76" height="519.77" filterUnits="userSpaceOnUse">
			<feColorMatrix values="1 0 0 0 0  0 1 0 0 0  0 0 1 0 0  0 0 0 1 0"/>
		</filter>
	</defs>
	<mask id="w" x="658.4156" y="377.4055" width="426.7599" height="519.7711" maskUnits="userSpaceOnUse">
		<g filter="url(#n)">
				<linearGradient id="x" x1="877.54" x2="912.16" y1="641.34" y2="669.6" gradientTransform="matrix(1 .007 -.007 1 3.6013 -6.1211)" gradientUnits="userSpaceOnUse">
				<stop offset="0"/>
				<stop stop-color="#212121" offset=".0565"/>
				<stop stop-color="#545454" offset=".1564"/>
				<stop stop-color="#828282" offset=".2608"/>
				<stop stop-color="#A8A8A8" offset=".3677"/>
				<stop stop-color="#C8C8C8" offset=".4776"/>
				<stop stop-color="#E0E0E0" offset=".5917"/>
				<stop stop-color="#F1F1F1" offset=".7115"/>
				<stop stop-color="#FCFCFC" offset=".8409"/>
				<stop stop-color="#fff" offset=".9973"/>
			</linearGradient>
			<path d="m658.42 897.18c203.02-149.41 344.88-322.82 426.76-519.77-114.78 177.74-257.69 350.89-426.76 519.77z" fill="url(#x)"/>
		</g>
	</mask>
		<linearGradient id="o" x1="870.79" x2="911.33" y1="635.97" y2="666.02" gradientTransform="matrix(1 .007 -.007 1 3.6013 -6.1211)" gradientUnits="userSpaceOnUse">
		<stop stop-color="#B30101" offset="0"/>
		<stop stop-color="#BC2121" offset=".0551"/>
		<stop stop-color="#CC5454" offset=".1554"/>
		<stop stop-color="#DA8282" offset=".2603"/>
		<stop stop-color="#E5A8A8" offset=".3676"/>
		<stop stop-color="#EFC8C8" offset=".4781"/>
		<stop stop-color="#F6E0E0" offset=".5926"/>
		<stop stop-color="#FBF1F1" offset=".713"/>
		<stop stop-color="#FEFCFC" offset=".8429"/>
		<stop stop-color="#fff" offset="1"/>
	</linearGradient>
	<path d="m658.42 897.18c203.02-149.41 344.88-322.82 426.76-519.77-114.78 177.74-257.69 350.89-426.76 519.77z" fill="url(#o)" mask="url(#w)" opacity=".7"/>
</svg>
