<?xml version="1.0" standalone="no"?>
<!DOCTYPE svg PUBLIC "-//W3C//DTD SVG 20010904//EN"
 "http://www.w3.org/TR/2001/REC-SVG-20010904/DTD/svg10.dtd">
<svg version="1.0" xmlns="http://www.w3.org/2000/svg"
 width="240.000000pt" height="240.000000pt" viewBox="0 0 240.000000 240.000000"
 preserveAspectRatio="xMidYMid meet">
<metadata>
Created by potrace 1.14, written by Peter Selinger 2001-2017
</metadata>
<g transform="translate(0.000000,240.000000) scale(0.100000,-0.100000)"
fill="#000000" stroke="none">
<path d="M1128 2179 c-43 -22 -78 -81 -78 -129 0 -47 34 -103 75 -125 l37 -20
-7 -90 c-31 -412 -145 -535 -329 -352 -49 50 -111 138 -150 215 l-27 52 26 44
c30 52 32 94 5 146 -23 45 -80 80 -130 80 -50 0 -107 -35 -130 -80 -25 -50
-25 -90 1 -141 21 -43 80 -78 129 -79 29 0 33 -9 81 -151 56 -172 58 -275 4
-328 -34 -34 -91 -33 -171 3 -68 31 -186 119 -239 177 -31 35 -35 44 -29 75
16 86 -62 148 -141 112 -29 -13 -55 -55 -55 -88 0 -58 60 -108 118 -97 23 4
33 -2 68 -47 155 -191 262 -396 300 -574 l17 -82 697 0 697 0 17 82 c38 178
145 383 300 574 35 45 45 51 68 47 58 -11 118 39 118 97 0 33 -26 75 -55 88
-79 36 -157 -26 -141 -112 6 -31 2 -40 -29 -75 -53 -58 -171 -146 -239 -177
-78 -36 -136 -37 -170 -5 -56 53 -55 154 3 329 48 143 52 152 81 152 49 1 108
36 129 79 26 51 26 91 1 141 -23 45 -80 80 -130 80 -50 0 -107 -35 -130 -80
-27 -52 -25 -94 5 -146 l26 -44 -27 -52 c-39 -77 -101 -165 -150 -215 -184
-183 -298 -60 -329 352 l-7 90 37 20 c41 22 75 78 75 125 0 50 -35 107 -80
130 -49 25 -94 25 -142 -1z"/>
<path d="M500 350 l0 -150 700 0 700 0 0 150 0 150 -700 0 -700 0 0 -150z"/>
</g>
</svg>
