<svg width="640" height="480" xmlns="http://www.w3.org/2000/svg" xmlns:svg="http://www.w3.org/2000/svg" xmlns:xlink="http://www.w3.org/1999/xlink">
    <metadata id="metadata7">image/svg+xml</metadata>
    <g>
        <title>Layer 1</title>
        <g stroke="null" id="layer2">
            <path stroke="#000000" d="m111.136193,215.155972l36.982427,-10.086641l-65.489808,-84.053254l91.686123,21.01352l0,-17.651817l33.900319,15.97058l-0.770179,-69.76479l47.768681,46.229812l24.655237,-100.864787l30.818867,108.429185l18.490885,-55.47529l16.180326,48.751122l31.589089,-115.153602l13.098168,106.748197l33.900269,-24.375526l2.311294,42.026565l47.76938,-47.06973l0,58.8376l101.701692,-61.359221l-60.096649,90.778146l36.982505,-1.681244l-15.409412,45.389497l101.702391,19.332275l-108.636222,34.461841l35.441405,39.50555l-49.309774,18.491268c0,0 43.916344,89.938033 40.834892,89.938033c-3.082186,0 -65.490122,-32.781421 -65.490122,-32.781421l16.179606,98.343422l-63.178093,-98.343422l-6.934523,41.186795l-32.359226,-36.143085l-7.704731,72.286193l-33.13014,-64.721803l-16.950527,25.216253l-20.031979,-31.100184l-44.687208,63.881559l-7.70471,-57.156628l-57.785376,21.01352l3.852366,-47.070726c0,0 -72.423925,72.28617 -71.653738,67.243246c0.770186,-5.042932 19.261792,-103.386331 19.261792,-103.386331l-57.785298,15.970565c0,0 44.687144,-54.635115 40.834778,-56.31636c-3.852351,-1.681244 -149.470929,-17.651031 -149.470929,-17.651031c0,0 142.537119,-35.302863 139.45494,-36.984108c-3.082165,-1.680443 -33.130204,-20.172497 -30.818789,-21.853741l0,0z" id="path2891" stroke-width="1px" fill="#000000"/>
        </g>
        <g id="layer1" display="none" opacity="0.709677">
            <image y="50.338319" x="74.721355" id="image2886" height="565.18933" width="843.56616" xlink:href="file:///home/gaston/GNU/tableau-bang.jpg"/>
        </g>
        <text fill="#000000" stroke="#ff0000" stroke-width="0" x="272" y="317" id="svg_1" font-size="24" font-family="serif" text-anchor="middle" xml:space="preserve"/>
    </g>
</svg>