<?xml version="1.0" standalone="no"?>
<!DOCTYPE svg PUBLIC "-//W3C//DTD SVG 20010904//EN"
 "http://www.w3.org/TR/2001/REC-SVG-20010904/DTD/svg10.dtd">
<svg version="1.0" xmlns="http://www.w3.org/2000/svg"
 width="1200.000000pt" height="1089.000000pt" viewBox="0 0 1200.000000 1089.000000"
 preserveAspectRatio="xMidYMid meet">
<metadata>
Created by potrace 1.14, written by Peter Selinger 2001-2017
</metadata>
<g transform="translate(0.000000,1089.000000) scale(0.100000,-0.100000)"
fill="#000000" stroke="none">
<path d="M7235 10849 c-294 -43 -567 -205 -745 -441 -254 -337 -300 -787 -119
-1167 302 -636 1083 -845 1673 -449 78 53 231 206 284 284 278 414 267 941
-27 1331 -247 328 -664 500 -1066 442z"/>
<path d="M5156 8659 c-707 -82 -1175 -796 -966 -1473 12 -37 20 -69 18 -71 -2
-2 -100 -18 -218 -35 -693 -99 -1432 -277 -1923 -462 -95 -35 -115 -39 -159
-34 -106 14 -208 96 -243 194 -9 26 -21 102 -25 170 -11 147 -30 220 -75 287
-78 114 -221 157 -340 101 -59 -27 -85 -61 -85 -112 0 -60 29 -104 151 -224
129 -127 134 -136 144 -268 9 -116 27 -166 89 -251 82 -111 82 -122 -2 -294
-134 -272 -254 -606 -327 -912 -161 -668 -151 -1278 32 -1910 138 -479 415
-991 712 -1319 47 -52 48 -53 54 -138 13 -188 87 -464 181 -678 24 -55 80
-164 124 -242 142 -253 198 -376 323 -700 37 -97 75 -188 84 -202 l17 -26 361
2 361 3 54 120 c232 516 382 1033 382 1315 l0 72 28 -6 c31 -6 400 -40 602
-56 450 -33 910 -46 1188 -31 305 16 453 38 658 96 11 4 25 1 31 -7 6 -7 69
-128 140 -268 239 -470 379 -701 558 -920 72 -87 207 -220 280 -275 l60 -45
409 0 409 0 -6 28 c-4 15 -22 101 -42 191 -42 194 -88 469 -111 676 -22 188
-25 594 -6 705 49 276 115 385 301 494 144 85 265 124 469 151 359 48 578 127
924 332 574 339 1428 1019 1513 1205 55 120 85 293 85 486 0 140 -18 245 -50
297 -34 56 -111 76 -664 170 -176 31 -337 60 -357 65 -101 27 -397 309 -869
826 l-147 160 -6 160 c-4 87 -10 303 -13 478 l-7 319 -117 -6 c-506 -28 -951
-185 -1217 -431 -39 -36 -74 -66 -77 -66 -3 0 -45 29 -93 64 -342 248 -848
495 -1273 622 -69 20 -129 40 -133 44 -4 3 9 56 29 115 84 252 85 494 4 737
-58 174 -147 317 -279 448 -251 250 -595 370 -945 329z m-823 -1776 c24 -38
62 -88 83 -112 l39 -43 570 -9 c314 -4 684 -10 824 -13 l254 -4 25 26 c14 15
47 55 73 88 l49 62 80 -20 c44 -11 80 -25 80 -31 0 -11 -120 -439 -124 -444
-1 -1 -72 15 -157 36 -168 43 -445 92 -634 113 -188 20 -756 18 -920 -5 -72
-10 -155 -24 -185 -32 -30 -8 -55 -13 -57 -11 -15 14 -192 413 -189 423 5 13
86 41 123 42 17 1 33 -16 66 -66z m5125 -2219 c107 -44 165 -171 128 -282 -56
-168 -279 -213 -391 -80 -40 47 -55 89 -55 153 0 93 43 165 123 204 51 25 141
28 195 5z"/>
</g>
</svg>
