<?xml version="1.0" standalone="no"?>
<!DOCTYPE svg PUBLIC "-//W3C//DTD SVG 20010904//EN"
 "http://www.w3.org/TR/2001/REC-SVG-20010904/DTD/svg10.dtd">
<svg version="1.0" xmlns="http://www.w3.org/2000/svg"
 width="512.000000pt" height="512.000000pt" viewBox="0 0 512.000000 512.000000"
 preserveAspectRatio="xMidYMid meet">
<metadata>
Created by potrace 1.14, written by Peter Selinger 2001-2017
</metadata>
<g transform="translate(0.000000,512.000000) scale(0.100000,-0.100000)"
fill="#000000" stroke="none">
<path d="M1788 4850 c-296 -54 -533 -257 -624 -537 -27 -81 -29 -100 -29 -233
1 -132 3 -152 29 -225 15 -44 31 -84 35 -88 7 -7 160 61 180 79 2 1 -6 31 -18
66 -78 228 5 499 196 635 166 119 417 137 601 44 162 -82 265 -229 292 -419
l12 -82 101 0 100 0 -6 69 c-13 157 -87 317 -205 442 -114 121 -236 196 -379
233 -75 20 -222 28 -285 16z"/>
<path d="M3693 4375 c-200 -67 -342 -155 -475 -293 -46 -48 -106 -122 -133
-165 -41 -65 -53 -77 -70 -73 -147 37 -483 60 -684 46 -463 -31 -828 -157
-1177 -405 -192 -138 -378 -371 -451 -568 -9 -26 -21 -47 -26 -47 -22 0 -133
68 -171 105 -68 66 -91 124 -91 231 0 83 2 94 30 140 21 33 48 60 85 82 64 38
86 74 76 126 -13 71 -88 96 -166 56 -137 -70 -232 -241 -232 -418 1 -221 127
-396 359 -498 54 -24 55 -26 49 -57 -37 -173 -46 -455 -21 -598 28 -160 96
-319 209 -484 63 -92 239 -283 320 -345 25 -19 45 -43 46 -53 0 -10 -23 -77
-51 -150 -59 -150 -65 -206 -34 -297 13 -38 33 -69 69 -105 48 -47 64 -55 251
-125 220 -83 256 -88 354 -56 38 13 70 34 106 70 46 46 57 65 100 181 26 72
49 131 50 133 2 2 52 -7 111 -19 138 -27 440 -37 652 -20 81 7 154 14 162 17
12 3 25 -22 54 -102 21 -58 52 -126 70 -152 55 -82 191 -143 282 -126 21 4
123 40 228 80 176 67 195 77 237 121 52 54 89 140 89 206 0 23 -14 84 -32 134
-34 99 -29 94 -88 75 -8 -2 30 23 85 58 127 78 189 126 277 214 87 87 161 184
224 296 26 47 53 95 60 106 12 20 23 22 141 26 149 5 195 20 263 88 83 83 85
94 85 435 0 267 -2 304 -18 338 -27 58 -96 127 -152 153 -44 21 -65 24 -177
24 -119 0 -128 1 -128 19 0 10 -11 58 -25 106 -90 309 -303 564 -594 709 l-73
37 7 67 c16 152 51 286 139 531 23 63 25 78 15 108 -12 36 -59 73 -94 73 -11
0 -66 -16 -122 -35z m-73 -316 c-45 -149 -61 -243 -67 -394 l-5 -150 28 -26
c16 -14 56 -35 89 -48 84 -33 188 -95 268 -159 140 -114 244 -286 296 -491 33
-128 48 -153 116 -196 46 -29 54 -30 190 -35 99 -3 147 -9 159 -19 14 -12 16
-46 16 -297 0 -244 -2 -285 -16 -298 -12 -13 -39 -16 -133 -16 -196 0 -265
-36 -336 -172 -105 -202 -239 -358 -388 -453 -138 -88 -161 -107 -190 -165
-36 -69 -33 -110 17 -234 44 -109 46 -140 9 -160 -48 -24 -374 -146 -393 -146
-27 0 -45 28 -89 145 -55 145 -70 173 -106 200 -60 45 -95 49 -265 34 -212
-19 -510 -17 -620 5 -270 54 -325 29 -407 -184 -66 -174 -74 -190 -99 -196
-16 -4 -85 17 -211 65 -187 72 -223 91 -223 119 0 8 25 80 57 161 89 231 79
308 -56 414 -161 127 -304 300 -383 463 -60 127 -86 228 -94 368 -22 392 102
759 337 995 110 110 320 249 498 330 358 163 849 214 1291 135 47 -8 113 -20
147 -27 57 -10 65 -9 89 9 15 11 45 53 67 94 71 134 143 224 241 299 56 43
177 113 184 106 3 -2 -6 -36 -18 -76z"/>
<path d="M3628 2721 c-161 -102 -85 -355 107 -355 192 0 268 253 107 355 -38
24 -57 29 -107 29 -50 0 -69 -5 -107 -29z"/>
</g>
</svg>
