<?xml version="1.0" standalone="no"?>
<!DOCTYPE svg PUBLIC "-//W3C//DTD SVG 20010904//EN"
 "http://www.w3.org/TR/2001/REC-SVG-20010904/DTD/svg10.dtd">
<svg version="1.0" xmlns="http://www.w3.org/2000/svg"
 width="200.000000pt" height="200.000000pt" viewBox="0 0 200.000000 200.000000"
 preserveAspectRatio="xMidYMid meet">
<metadata>
Created by potrace 1.14, written by Peter Selinger 2001-2017
</metadata>
<g transform="translate(0.000000,200.000000) scale(0.100000,-0.100000)"
fill="#000000" stroke="none">
<path d="M865 1859 c-27 -4 -54 -14 -60 -21 -5 -7 -28 -13 -50 -14 -50 0 -155
-47 -155 -69 0 -11 -7 -14 -22 -10 -35 7 -142 -72 -146 -108 -3 -22 -7 -27
-21 -22 -13 4 -33 -10 -70 -51 -51 -55 -55 -63 -52 -96 2 -12 -5 -18 -17 -18
-27 0 -97 -147 -80 -168 10 -11 8 -17 -9 -30 -34 -28 -56 -155 -31 -180 9 -9
7 -16 -7 -32 -15 -16 -17 -31 -13 -92 5 -59 9 -75 27 -87 20 -12 20 -15 6 -31
-13 -15 -13 -24 7 -89 16 -54 28 -76 44 -83 18 -8 22 -17 18 -37 -8 -38 66
-151 99 -151 20 0 23 -4 20 -23 -6 -34 96 -131 131 -125 21 4 25 1 28 -20 4
-36 110 -95 156 -87 24 5 32 2 32 -9 0 -20 21 -30 95 -50 55 -14 61 -14 78 2
18 16 20 16 34 -6 14 -20 24 -22 93 -22 69 0 79 2 93 22 14 22 16 22 34 6 17
-16 23 -16 78 -2 74 20 95 30 95 50 0 11 8 14 33 9 45 -8 151 51 155 87 3 21
7 24 28 20 35 -6 137 91 131 126 -3 18 0 22 20 22 33 0 107 113 99 151 -4 20
0 29 18 37 16 7 28 29 44 83 20 65 20 74 7 89 -14 16 -14 19 6 31 18 12 22 28
27 87 4 61 2 76 -13 92 -14 16 -16 23 -7 32 25 25 3 152 -31 180 -17 13 -19
19 -9 30 17 21 -53 168 -80 168 -12 0 -19 6 -17 18 3 33 -1 41 -52 96 -37 41
-57 55 -70 51 -14 -5 -18 0 -21 22 -4 36 -111 115 -145 108 -16 -4 -23 -1 -23
10 0 22 -105 69 -155 69 -22 1 -45 7 -50 14 -16 20 -153 38 -178 23 -14 -9
-22 -10 -30 -2 -12 12 -49 12 -122 0z m276 -335 c92 -28 170 -74 234 -138 239
-241 198 -631 -86 -819 -205 -137 -488 -107 -664 69 -102 103 -155 230 -155
376 0 237 146 433 380 509 72 23 217 25 291 3z"/>
<path d="M870 1476 c-245 -71 -396 -314 -346 -556 22 -104 59 -175 131 -246
279 -281 751 -128 816 264 34 205 -74 408 -267 504 -80 39 -89 41 -187 44 -64
2 -119 -1 -147 -10z m315 -65 c224 -109 318 -377 207 -596 -37 -74 -70 -114
-135 -162 -218 -160 -538 -83 -657 160 -117 239 -6 519 244 614 52 20 76 23
166 20 96 -3 111 -6 175 -36z"/>
</g>
</svg>
