<?xml version="1.0" encoding="UTF-8" standalone="no"?>
<svg
   xmlns:dc="http://purl.org/dc/elements/1.1/"
   xmlns:cc="http://creativecommons.org/ns#"
   xmlns:rdf="http://www.w3.org/1999/02/22-rdf-syntax-ns#"
   xmlns:svg="http://www.w3.org/2000/svg"
   xmlns="http://www.w3.org/2000/svg"
   id="svg6"
   version="1.1"
   width="48"
   viewBox="0 0 48 48"
   height="48">
  <metadata
     id="metadata12">
    <rdf:RDF>
      <cc:Work
         rdf:about="">
        <dc:format>image/svg+xml</dc:format>
        <dc:type
           rdf:resource="http://purl.org/dc/dcmitype/StillImage" />
      </cc:Work>
    </rdf:RDF>
  </metadata>
  <defs
     id="defs10" />
  <path
     id="path2"
     d="M37.84 12.02c-.41-1.18-1.53-2.02-2.84-2.02h-22c-1.31 0-2.43.84-2.84 2.02l-4.16 11.98v16c0 1.1.9 2 2 2h2c1.11 0 2-.9 2-2v-2h24v2c0 1.1.9 2 2 2h2c1.11 0 2-.9 2-2v-16l-4.16-11.98zm-24.84 19.98c-1.66 0-3-1.34-3-3s1.34-3 3-3 3 1.34 3 3-1.34 3-3 3zm22 0c-1.66 0-3-1.34-3-3s1.34-3 3-3 3 1.34 3 3-1.34 3-3 3zm-25-10l3-9h22l3 9h-28z" />
  <path
     id="path4"
     fill="none"
     d="M0 0h48v48h-48z" />
</svg>
