<?xml version="1.0" standalone="no"?>
<!DOCTYPE svg PUBLIC "-//W3C//DTD SVG 20010904//EN"
 "http://www.w3.org/TR/2001/REC-SVG-20010904/DTD/svg10.dtd">
<svg version="1.0" xmlns="http://www.w3.org/2000/svg"
 width="512.000000pt" height="512.000000pt" viewBox="0 0 512.000000 512.000000"
 preserveAspectRatio="xMidYMid meet">
<metadata>
Created by potrace 1.14, written by Peter Selinger 2001-2017
</metadata>
<g transform="translate(0.000000,512.000000) scale(0.100000,-0.100000)"
fill="#000000" stroke="none">
<path d="M2321 5110 c-497 -48 -990 -251 -1376 -565 -114 -92 -294 -274 -384
-387 -229 -287 -417 -675 -495 -1023 -49 -218 -60 -325 -60 -575 0 -250 11
-357 60 -575 79 -355 272 -749 509 -1040 92 -114 274 -294 387 -384 287 -229
675 -417 1023 -495 218 -49 325 -60 575 -60 250 0 357 11 575 60 261 58 603
204 828 353 389 259 688 599 893 1016 125 255 196 484 241 775 24 161 24 539
0 700 -45 291 -116 520 -241 775 -134 272 -283 480 -498 692 -211 209 -404
346 -673 478 -252 124 -486 197 -765 240 -126 19 -468 27 -599 15z m420 -640
c649 -63 1230 -463 1522 -1046 38 -77 97 -210 97 -221 0 -2 -810 -3 -1800 -3
-990 0 -1800 1 -1800 3 0 11 59 144 97 221 351 702 1108 1122 1884 1046z m-49
-1622 c70 -32 124 -86 157 -157 54 -115 27 -264 -64 -356 -122 -121 -328 -121
-450 0 -78 78 -111 204 -82 306 57 194 259 289 439 207z m-1913 -298 c784 -81
1400 -838 1454 -1789 l5 -83 -48 6 c-71 9 -252 63 -350 103 -244 101 -425 220
-619 408 -329 319 -527 731 -571 1190 -15 159 -14 175 9 175 10 0 65 -5 120
-10z m3701 -22 c0 -18 -5 -82 -10 -143 -44 -459 -242 -871 -571 -1190 -194
-188 -375 -307 -619 -408 -98 -40 -279 -94 -350 -103 l-48 -6 5 83 c57 996
725 1768 1556 1798 35 1 37 0 37 -31z"/>
</g>
</svg>
