<?xml version="1.0" standalone="no"?>
<!DOCTYPE svg PUBLIC "-//W3C//DTD SVG 20010904//EN"
 "http://www.w3.org/TR/2001/REC-SVG-20010904/DTD/svg10.dtd">
<svg version="1.0" xmlns="http://www.w3.org/2000/svg"
 width="255.000000pt" height="236.000000pt" viewBox="0 0 255.000000 236.000000"
 preserveAspectRatio="xMidYMid meet">
<metadata>
Created by potrace 1.14, written by Peter Selinger 2001-2017
</metadata>
<g transform="translate(0.000000,236.000000) scale(0.100000,-0.100000)"
fill="#000000" stroke="none">
<path d="M1283 2250 l-23 -9 0 -586 0 -585 -135 0 c-74 0 -135 3 -135 6 0 4 8
13 18 20 26 21 -2 35 -62 32 -52 -3 -75 -25 -37 -35 21 -5 30 -23 11 -23 -15
0 -29 -35 -23 -58 5 -22 9 -22 185 -22 l179 0 -3 -281 -3 -281 -24 -19 c-21
-17 -41 -19 -193 -19 -166 0 -169 0 -193 -25 -31 -30 -33 -83 -6 -116 l19 -24
434 -3 c238 -1 443 0 455 3 32 8 55 57 47 101 -11 59 -28 64 -217 64 -165 0
-168 0 -192 25 l-25 24 0 275 0 276 178 2 177 3 3 30 c3 19 -2 33 -14 42 -17
12 -17 14 1 26 10 8 15 19 11 25 -9 15 -85 15 -106 2 -13 -9 -13 -12 3 -24 9
-7 17 -16 17 -20 0 -3 -61 -6 -135 -6 l-135 0 0 585 c0 567 -1 585 -19 595
-23 12 -28 12 -58 0z"/>
<path d="M790 1980 c-133 -14 -186 -46 -278 -169 -51 -67 -64 -78 -114 -96
-123 -44 -169 -100 -190 -231 -13 -86 -5 -238 16 -288 l15 -37 93 3 93 3 12
67 c16 90 45 142 96 176 37 24 51 27 127 27 78 0 88 -2 127 -30 52 -37 79 -84
95 -166 l13 -64 152 -9 c84 -4 160 -6 169 -2 14 5 15 33 12 254 l-3 247 -70 8
c-38 5 -71 10 -73 12 -5 5 -42 206 -42 231 l0 26 93 -3 c87 -4 92 -3 95 17 3
19 -3 22 -65 27 -83 8 -285 7 -373 -3z m139 -39 c9 -6 15 -44 18 -134 l6 -125
-89 4 c-311 15 -314 15 -324 33 -13 25 28 108 72 147 45 39 104 62 188 73 90
12 113 12 129 2z"/>
<path d="M1390 1932 c0 -26 5 -31 55 -50 87 -34 187 -96 233 -146 47 -51 49
-58 25 -77 -12 -11 -51 -13 -165 -11 l-148 2 2 -242 3 -243 161 -3 161 -2 11
25 c7 14 12 42 12 61 0 103 103 194 220 194 129 0 220 -97 220 -234 l0 -48 76
4 c60 3 79 7 90 23 19 26 18 176 -1 241 -32 108 -127 177 -300 219 -139 34
-183 54 -336 156 -122 80 -237 142 -291 155 -26 6 -28 4 -28 -24z"/>
<path d="M2215 1946 c-99 -31 -210 -107 -274 -187 -29 -36 -30 -39 -13 -48 15
-8 29 0 77 50 32 32 61 59 65 59 4 0 13 -30 20 -67 14 -76 29 -114 29 -73 0
14 -6 54 -14 90 -14 62 -13 66 6 82 22 19 121 58 159 63 14 1 28 3 33 4 13 2
7 29 -9 35 -21 8 -32 7 -79 -8z"/>
<path d="M602 1383 c-12 -3 -40 -21 -61 -41 -85 -81 -75 -204 22 -276 22 -16
43 -21 96 -21 58 0 73 4 103 27 45 35 69 85 70 149 0 113 -103 186 -230 162z
m118 -92 c14 -10 29 -35 35 -55 11 -47 -5 -81 -53 -109 -40 -24 -74 -17 -113
23 -50 50 -33 126 35 156 35 15 59 11 96 -15z"/>
<path d="M1768 1218 c-6 -71 36 -156 102 -204 54 -40 60 -41 60 -11 0 12 5 29
10 37 7 11 2 21 -21 40 -17 14 -50 62 -74 105 -53 99 -71 106 -77 33z"/>
<path d="M1962 1207 c-29 -31 -29 -87 -2 -112 30 -27 88 -25 111 4 28 35 25
85 -7 110 -35 28 -75 27 -102 -2z"/>
<path d="M2005 1050 c-12 -4 -26 -14 -32 -21 -6 -8 -19 -88 -29 -179 -14 -138
-23 -179 -51 -248 -28 -72 -34 -98 -39 -206 -7 -121 -7 -123 17 -139 30 -22
35 -21 59 3 17 17 20 33 20 123 0 56 3 112 6 124 7 25 24 21 24 -5 0 -29 94
-240 112 -251 12 -7 26 -8 43 -1 36 14 32 43 -19 158 -59 133 -71 220 -51 374
29 239 29 225 1 253 -27 27 -31 28 -61 15z"/>
<path d="M1732 975 c-8 -10 -31 -15 -62 -15 -89 0 -63 -19 81 -60 59 -17 85
-20 120 -13 40 8 44 11 47 40 2 25 -1 33 -18 38 -12 4 -32 4 -45 1 -12 -3 -42
1 -65 9 -23 8 -43 15 -44 15 0 -1 -7 -7 -14 -15z"/>
</g>
</svg>
