<?xml version="1.0" standalone="no"?>
<!DOCTYPE svg PUBLIC "-//W3C//DTD SVG 20010904//EN"
 "http://www.w3.org/TR/2001/REC-SVG-20010904/DTD/svg10.dtd">
<svg version="1.0" xmlns="http://www.w3.org/2000/svg"
 width="200.000000pt" height="200.000000pt" viewBox="0 0 200.000000 200.000000"
 preserveAspectRatio="xMidYMid meet">
<metadata>
Created by potrace 1.14, written by Peter Selinger 2001-2017
</metadata>
<g transform="translate(0.000000,200.000000) scale(0.100000,-0.100000)"
fill="#000000" stroke="none">
<path d="M721 1719 c-122 -11 -192 -32 -237 -71 -51 -45 -117 -164 -155 -278
l-32 -99 -41 45 c-48 54 -107 69 -151 40 -22 -15 -25 -23 -25 -76 0 -82 10
-90 117 -90 l85 0 -41 -46 c-90 -102 -110 -185 -93 -386 6 -79 18 -166 27
-194 17 -57 49 -104 71 -104 11 0 14 -16 14 -68 0 -94 10 -102 123 -102 77 0
87 2 101 22 9 13 16 43 16 71 0 43 2 48 18 42 9 -4 160 -9 335 -12 l317 -6 0
26 c0 14 2 32 5 39 4 9 -4 19 -20 26 -42 19 -65 69 -65 140 0 73 18 115 59
136 26 14 28 18 23 64 -5 58 11 95 63 140 41 37 72 46 124 39 34 -4 40 -2 50
19 18 41 68 64 139 64 73 0 116 -20 134 -62 12 -25 16 -27 58 -21 25 3 47 8
50 10 8 7 -33 74 -73 119 l-39 44 85 0 c104 0 117 10 117 92 0 73 -20 93 -87
85 -41 -4 -54 -12 -89 -51 l-42 -46 -32 99 c-36 114 -103 234 -154 279 -20 17
-60 38 -89 47 -110 32 -443 44 -666 24z m581 -123 c113 -21 126 -30 169 -116
34 -67 89 -219 89 -245 0 -7 -31 -8 -87 -3 -211 16 -615 21 -836 9 -126 -7
-231 -10 -234 -7 -15 15 99 299 131 325 21 18 132 42 233 51 127 11 437 3 535
-14z m-786 -589 c86 -79 35 -217 -81 -217 -74 0 -125 51 -125 125 0 73 53 124
128 125 34 0 49 -6 78 -33z"/>
<path d="M1503 998 c-6 -7 -13 -29 -17 -49 -5 -31 -12 -38 -45 -49 -36 -11
-42 -11 -69 9 -39 27 -42 27 -80 -12 -38 -39 -38 -40 -11 -79 20 -27 20 -33 9
-69 -13 -38 -20 -43 -75 -51 -17 -3 -21 -12 -23 -57 -3 -59 5 -71 50 -71 22 0
32 -8 47 -39 l20 -38 -26 -38 c-25 -37 -25 -37 -6 -63 37 -50 55 -55 95 -27
36 25 38 25 73 8 23 -11 38 -26 41 -43 14 -61 13 -60 64 -60 52 0 60 6 69 54
5 23 16 36 44 49 37 17 39 17 64 -3 36 -28 54 -25 91 13 l33 33 -26 38 -25 37
20 38 c16 32 25 39 60 45 l41 6 -3 57 -3 57 -41 9 c-36 7 -43 13 -57 47 -14
37 -14 41 4 64 26 33 24 55 -8 88 -32 34 -42 34 -78 6 -26 -20 -29 -20 -68 -6
-36 13 -43 20 -50 53 -4 22 -13 43 -20 47 -19 12 -84 9 -94 -4z m143 -208
c108 -67 106 -234 -4 -302 -51 -31 -133 -31 -184 0 -78 48 -107 146 -68 226
47 98 164 132 256 76z"/>
</g>
</svg>
