<?xml version="1.0" standalone="no"?>
<!DOCTYPE svg PUBLIC "-//W3C//DTD SVG 20010904//EN"
 "http://www.w3.org/TR/2001/REC-SVG-20010904/DTD/svg10.dtd">
<svg version="1.0" xmlns="http://www.w3.org/2000/svg"
 width="200.000000pt" height="200.000000pt" viewBox="0 0 200.000000 200.000000"
 preserveAspectRatio="xMidYMid meet">
<metadata>
Created by potrace 1.14, written by Peter Selinger 2001-2017
</metadata>
<g transform="translate(0.000000,200.000000) scale(0.100000,-0.100000)"
fill="#000000" stroke="none">
<path d="M570 1884 c-266 -57 -470 -311 -470 -584 0 -218 137 -439 330 -534
72 -35 184 -65 243 -66 23 0 27 -4 27 -27 0 -16 7 -59 15 -98 57 -270 309
-475 585 -475 323 0 600 277 600 600 0 276 -205 528 -475 585 -38 8 -82 15
-97 15 -24 0 -28 4 -28 28 -1 58 -31 170 -66 242 -51 103 -161 213 -264 264
-129 62 -264 80 -400 50z m232 -95 c187 -39 348 -200 387 -387 21 -102 19
-107 -52 -126 -34 -9 -86 -30 -115 -46 l-52 -28 -108 62 -107 62 -3 212 -2
212 -50 0 -50 0 0 -239 0 -239 115 -67 c63 -37 115 -69 115 -72 0 -3 -17 -25
-38 -49 -50 -56 -96 -143 -118 -222 -20 -70 -24 -72 -126 -51 -187 39 -348
200 -387 387 -35 166 15 330 138 453 123 123 287 173 453 138z m600 -600 c226
-47 398 -259 398 -489 0 -270 -230 -500 -500 -500 -270 0 -500 230 -500 500 0
225 164 433 383 486 66 16 152 17 219 3z"/>
<path d="M1250 1101 c0 -54 -2 -59 -25 -65 -39 -10 -92 -63 -111 -111 -34 -91
7 -197 93 -239 l42 -21 1 -103 c0 -97 -1 -102 -19 -93 -10 6 -26 29 -35 51
-15 39 -17 40 -62 40 l-47 0 6 -41 c8 -58 49 -115 107 -147 49 -26 50 -28 50
-74 l0 -48 50 0 50 0 0 48 c0 46 1 48 50 74 29 17 61 45 77 70 24 36 28 52 28
114 0 64 -3 77 -30 116 -18 25 -50 54 -78 68 l-47 25 0 83 c0 85 8 96 30 42
11 -28 16 -30 62 -30 l50 0 -7 33 c-9 47 -55 109 -98 132 -36 20 -37 21 -37
78 l0 57 -50 0 -50 0 0 -59z"/>
</g>
</svg>
