<?xml version="1.0" standalone="no"?>
<!DOCTYPE svg PUBLIC "-//W3C//DTD SVG 20010904//EN"
 "http://www.w3.org/TR/2001/REC-SVG-20010904/DTD/svg10.dtd">
<svg version="1.0" xmlns="http://www.w3.org/2000/svg"
 width="256.000000pt" height="256.000000pt" viewBox="0 0 256.000000 256.000000"
 preserveAspectRatio="xMidYMid meet">
<metadata>
Created by potrace 1.14, written by Peter Selinger 2001-2017
</metadata>
<g transform="translate(0.000000,256.000000) scale(0.100000,-0.100000)"
fill="#000000" stroke="none">
<path d="M29 2539 c-20 -20 -21 -28 -14 -127 4 -64 11 -110 18 -114 9 -6 9
-10 0 -16 -10 -6 -10 -33 -3 -117 8 -91 13 -113 30 -126 17 -15 18 -18 5 -29
-10 -8 -15 -30 -15 -64 0 -58 5 -68 40 -86 15 -8 20 -15 12 -18 -6 -2 -12 -12
-12 -23 0 -10 -7 -19 -15 -19 -16 0 -18 -15 -8 -74 4 -29 14 -43 38 -57 17
-11 37 -30 43 -44 10 -22 9 -25 -8 -25 -24 0 -26 -29 -5 -70 11 -21 27 -33 58
-41 39 -11 40 -12 17 -20 -14 -4 -41 -10 -61 -13 -27 -5 -38 -13 -43 -29 -11
-40 -6 -191 7 -217 8 -16 49 -44 116 -79 70 -36 99 -56 90 -61 -8 -5 -52 -13
-98 -18 -110 -13 -111 -15 -86 -148 18 -96 30 -114 91 -138 27 -10 84 -35 128
-54 89 -40 88 -42 -37 -62 l-77 -13 0 -36 c0 -20 13 -61 28 -91 31 -62 39 -66
225 -121 119 -36 123 -49 15 -49 -82 0 -98 -6 -98 -36 0 -32 63 -100 103 -113
18 -5 88 -17 157 -27 151 -20 179 -28 130 -37 -19 -3 -61 -9 -93 -13 -45 -5
-57 -10 -53 -21 3 -8 6 -16 6 -19 0 -5 65 -33 125 -52 43 -14 110 -16 468 -17
l419 0 31 38 c28 32 38 37 75 37 32 0 55 8 86 29 74 51 106 87 106 118 0 44
25 73 65 73 31 0 37 6 86 83 45 69 53 90 55 132 1 61 20 103 48 107 23 3 43
49 76 174 15 60 17 80 8 102 -12 30 -12 31 -3 85 3 21 12 37 19 37 24 0 29 31
34 216 4 174 4 182 -17 201 -24 22 -40 106 -22 117 17 11 13 84 -10 177 -25
99 -33 116 -58 124 -27 8 -49 73 -37 107 8 23 3 41 -33 114 -48 96 -71 124
-102 124 -30 0 -58 39 -59 82 0 32 -8 44 -66 97 -62 57 -69 60 -122 63 -54 3
-57 4 -62 33 -6 34 -27 47 -115 70 -50 13 -170 15 -832 15 -772 0 -773 0 -794
-21z m1326 -43 c-38 -21 -59 -39 -57 -49 4 -21 -48 -59 -72 -53 -14 4 -36 -9
-74 -41 -43 -37 -56 -43 -63 -32 -14 22 -12 25 32 60 50 39 39 49 -45 42 -99
-9 -55 13 74 35 63 11 144 31 180 45 89 35 96 33 25 -7z m-392 -299 l19 -35
-45 -77 c-37 -62 -44 -81 -35 -95 13 -21 5 -60 -20 -90 -18 -22 -18 -22 -17
22 0 23 4 48 8 55 4 6 10 47 14 90 3 43 12 87 19 98 19 27 18 34 -11 45 -29
11 -34 46 -7 53 21 5 51 -22 75 -66z m751 -142 c77 -39 172 -142 224 -243 162
-313 162 -749 -1 -1067 -57 -111 -168 -223 -252 -254 -267 -100 -533 190 -586
640 -49 422 121 846 379 944 62 24 167 15 236 -20z m-934 -352 c0 -5 -4 -25
-9 -45 -7 -29 -5 -38 6 -42 10 -4 13 -18 11 -48 -3 -38 -6 -43 -29 -46 -29 -3
-114 54 -114 78 0 7 18 23 40 35 22 13 46 34 53 49 12 23 42 37 42 19z m-50
-443 c0 -10 11 -30 25 -44 32 -32 34 -85 4 -112 -23 -21 -22 -35 7 -189 14
-71 19 -83 44 -97 38 -22 53 -73 32 -109 -14 -25 -12 -32 31 -123 26 -54 51
-95 56 -92 5 3 23 -9 41 -27 24 -25 30 -38 26 -59 -6 -30 10 -55 83 -130 27
-29 54 -48 67 -48 24 0 68 -46 58 -61 -6 -10 59 -58 144 -107 31 -18 46 -30
32 -27 -40 11 -159 63 -183 80 -14 9 -44 15 -84 15 -65 0 -83 9 -58 30 27 22
16 44 -55 115 l-70 70 -87 5 -87 5 42 33 c55 44 54 63 -11 182 l-52 95 -78 5
-78 5 51 50 c59 58 60 69 26 220 -25 111 -40 128 -101 118 -18 -3 -40 -1 -50
4 -15 9 -8 17 43 57 61 48 72 66 72 124 l0 32 55 0 c48 0 55 -3 55 -20z"/>
</g>
</svg>
