<?xml version="1.0" standalone="no"?>
<!DOCTYPE svg PUBLIC "-//W3C//DTD SVG 20010904//EN"
 "http://www.w3.org/TR/2001/REC-SVG-20010904/DTD/svg10.dtd">
<svg version="1.0" xmlns="http://www.w3.org/2000/svg"
 width="512.000000pt" height="512.000000pt" viewBox="0 0 512.000000 512.000000"
 preserveAspectRatio="xMidYMid meet">
<metadata>
Created by potrace 1.14, written by Peter Selinger 2001-2017
</metadata>
<g transform="translate(0.000000,512.000000) scale(0.100000,-0.100000)"
fill="#000000" stroke="none">
<path d="M2325 5114 c-27 -2 -113 -11 -190 -20 -772 -85 -1377 -417 -1476
-808 -11 -46 -14 -48 -93 -88 -272 -136 -473 -329 -538 -515 -22 -64 -23 -82
-23 -323 0 -241 1 -259 23 -322 13 -37 41 -95 63 -129 50 -77 173 -199 264
-264 60 -42 283 -163 324 -177 11 -3 10 -15 -9 -63 -22 -55 -24 -78 -28 -290
-4 -267 5 -325 68 -442 l39 -73 -39 -73 c-59 -110 -70 -170 -70 -402 0 -227
11 -298 60 -396 66 -131 162 -232 320 -339 273 -184 657 -310 1120 -367 107
-13 218 -17 420 -17 202 0 313 4 420 17 816 100 1399 428 1486 836 19 91 19
432 -1 524 -8 37 -33 103 -55 145 l-42 78 40 74 c22 41 46 94 53 118 12 40 18
45 107 92 279 147 460 322 524 507 22 64 23 82 23 323 0 241 -1 259 -23 322
-32 93 -90 178 -186 272 -99 98 -197 165 -353 243 -65 32 -120 59 -121 60 -2
1 6 28 19 60 21 53 23 78 27 275 5 252 -5 325 -53 427 -44 92 -98 164 -177
235 -267 244 -717 416 -1258 481 -129 16 -556 28 -665 19z m655 -179 c533 -65
983 -246 1201 -484 72 -78 106 -137 126 -219 80 -320 -384 -669 -1072 -807
-227 -45 -390 -59 -675 -59 -285 0 -448 14 -675 59 -670 134 -1135 473 -1077
786 63 339 628 645 1337 723 215 24 215 24 465 21 136 -2 292 -10 370 -20z
m-2340 -1007 c0 -146 17 -232 60 -319 66 -131 162 -232 320 -339 273 -184 657
-310 1120 -367 164 -20 620 -23 770 -6 47 6 87 9 88 7 8 -6 -252 -84 -360
-108 -233 -52 -417 -70 -713 -70 -291 -1 -449 13 -680 59 -671 134 -1135 473
-1077 787 21 113 95 221 221 323 62 50 227 155 244 155 4 0 7 -55 7 -122z
m3815 -507 c288 -140 481 -335 501 -506 12 -104 -35 -217 -135 -326 -361 -394
-1295 -598 -2145 -469 -147 23 -253 46 -410 92 -115 33 -121 46 -24 47 67 1
313 38 443 66 448 97 820 284 1000 502 62 76 118 177 136 246 11 47 14 49 93
89 121 61 264 158 347 237 41 39 79 70 84 70 6 1 55 -21 110 -48z m-3480
-1055 c50 -15 157 -41 240 -57 82 -17 150 -31 151 -32 0 -1 21 -30 47 -63 185
-245 581 -445 1077 -544 260 -52 397 -64 700 -64 151 1 313 6 360 11 47 6 86
9 88 8 13 -10 -261 -89 -413 -120 -237 -47 -363 -59 -655 -59 -296 -1 -452 13
-685 59 -413 83 -767 249 -946 444 -129 140 -166 275 -113 406 22 52 11 52
149 11z m88 -1045 c289 -176 678 -294 1127 -342 152 -17 584 -17 735 0 541 58
1025 229 1277 450 25 23 48 41 51 41 10 0 60 -127 65 -165 5 -51 -18 -146 -52
-206 -133 -237 -541 -456 -1031 -554 -227 -45 -390 -59 -675 -59 -285 0 -448
14 -675 59 -413 83 -767 249 -946 444 -71 77 -105 136 -126 215 -19 75 -14
125 22 204 l27 61 67 -53 c36 -30 96 -72 134 -95z"/>
<path d="M2410 4745 c0 -36 -4 -57 -12 -59 -7 -2 -63 -9 -124 -15 -249 -25
-441 -107 -494 -210 -71 -140 41 -256 307 -321 65 -16 206 -43 313 -60 402
-62 483 -85 496 -137 8 -32 -3 -51 -46 -80 -49 -34 -92 -43 -231 -50 -246 -12
-402 33 -469 135 l-15 23 -228 -25 c-126 -13 -231 -26 -233 -29 -3 -2 16 -27
41 -55 110 -122 273 -184 570 -215 l120 -12 3 -73 3 -72 149 0 150 0 0 74 0
73 83 7 c279 22 476 81 577 172 96 86 94 204 -4 276 -107 80 -220 111 -652
183 -293 49 -373 68 -403 97 -43 39 -17 89 64 124 51 22 257 31 335 15 76 -16
158 -56 201 -97 l36 -35 189 31 c245 40 237 37 190 83 -100 100 -284 165 -521
185 l-90 7 -3 58 -3 57 -149 0 -150 0 0 -55z"/>
</g>
</svg>
