<?xml version="1.0" standalone="no"?>
<!DOCTYPE svg PUBLIC "-//W3C//DTD SVG 20010904//EN"
 "http://www.w3.org/TR/2001/REC-SVG-20010904/DTD/svg10.dtd">
<svg version="1.0" xmlns="http://www.w3.org/2000/svg"
 width="626.000000pt" height="626.000000pt" viewBox="0 0 626.000000 626.000000"
 preserveAspectRatio="xMidYMid meet">
<metadata>
Created by potrace 1.14, written by Peter Selinger 2001-2017
</metadata>
<g transform="translate(0.000000,626.000000) scale(0.100000,-0.100000)"
fill="#000000" stroke="none">
<path d="M2520 5821 l0 -439 98 -6 c503 -31 886 -139 1292 -364 376 -208 725
-527 966 -882 306 -452 470 -937 500 -1482 l7 -128 438 0 439 0 0 79 c0 160
-41 497 -86 706 -186 865 -675 1635 -1385 2179 -507 388 -1099 640 -1714 731
-131 19 -417 45 -497 45 l-58 0 0 -439z"/>
<path d="M2215 5148 c-636 -100 -1205 -420 -1614 -908 -358 -426 -569 -974
-597 -1545 l-7 -140 39 -70 c80 -148 228 -313 357 -398 154 -102 359 -172 539
-184 l100 -6 -17 39 c-92 216 -128 398 -129 654 -2 429 139 796 440 1145 44
51 202 193 249 225 12 8 45 30 73 49 l50 34 7 81 c33 391 258 771 585 992 l65
44 -40 -1 c-22 -1 -67 -6 -100 -11z"/>
<path d="M2900 5124 c-240 -36 -449 -137 -619 -298 -61 -58 -191 -216 -191
-231 0 -4 -13 -29 -28 -54 -54 -88 -146 -371 -121 -371 5 0 39 11 76 25 173
66 359 97 573 97 284 0 504 -51 760 -176 306 -150 599 -436 749 -733 27 -54
35 -63 63 -67 18 -2 83 -11 143 -19 225 -31 461 -135 642 -283 23 -19 83 -76
133 -127 90 -90 91 -91 86 -57 -3 19 -8 60 -11 90 -10 88 -62 327 -94 430
-145 468 -430 899 -796 1207 -52 44 -197 154 -251 191 -174 118 -469 254 -694
320 -97 28 -297 73 -317 71 -4 -1 -51 -7 -103 -15z"/>
<path d="M2500 3895 c-44 -20 -66 -40 -99 -90 -21 -33 -26 -52 -26 -110 0 -52
5 -78 19 -100 54 -84 107 -115 193 -115 219 1 303 262 128 396 -30 22 -48 28
-108 31 -51 2 -82 -1 -107 -12z"/>
<path d="M1732 3577 c-132 -48 -184 -212 -104 -329 37 -53 115 -98 172 -98
125 0 231 107 230 231 -1 74 -70 169 -143 196 -41 15 -113 15 -155 0z"/>
<path d="M3298 3576 c-110 -39 -168 -157 -133 -270 28 -89 119 -156 213 -156
44 0 128 38 159 71 53 58 69 168 34 244 -45 101 -165 149 -273 111z"/>
<path d="M2520 3179 c-146 -14 -318 -111 -401 -227 -86 -120 -119 -222 -119
-367 0 -269 164 -488 425 -568 136 -41 331 -19 461 54 72 40 180 147 218 214
82 147 103 327 56 470 -67 205 -209 346 -405 403 -82 24 -146 30 -235 21z"/>
<path d="M4230 3071 c0 -6 9 -43 20 -83 31 -119 44 -233 43 -403 0 -185 -13
-288 -53 -435 -39 -144 -72 -227 -137 -350 -138 -262 -326 -471 -573 -637 -41
-27 -89 -57 -106 -66 -31 -16 -31 -17 -38 -119 -23 -339 -144 -627 -358 -854
-44 -47 -78 -88 -75 -91 8 -7 188 25 297 54 274 72 528 186 760 340 181 119
259 183 395 318 413 410 657 891 744 1465 10 65 14 124 10 135 -138 350 -384
587 -719 693 -109 34 -210 50 -210 33z"/>
<path d="M1423 2801 c-39 -10 -94 -50 -122 -89 -74 -105 -33 -260 85 -318 106
-52 220 -18 285 84 28 43 30 53 27 118 -3 57 -9 79 -30 112 -50 75 -157 115
-245 93z"/>
<path d="M3629 2796 c-160 -57 -202 -262 -76 -373 124 -109 321 -44 356 118
17 80 -1 142 -59 200 -66 66 -140 84 -221 55z"/>
<path d="M61 2038 c27 -122 94 -338 130 -416 11 -24 27 -62 36 -85 52 -134
218 -408 327 -542 230 -284 472 -492 763 -656 332 -186 672 -291 1070 -329
l112 -10 68 37 c188 102 378 294 467 471 60 118 100 257 121 414 7 55 3 57
-64 34 -22 -8 -98 -27 -168 -42 -114 -25 -150 -28 -323 -28 -294 -1 -486 41
-745 163 -250 118 -457 290 -637 529 l-70 92 -113 0 c-334 0 -667 127 -904
344 -39 36 -73 66 -75 66 -2 0 0 -19 5 -42z"/>
<path d="M1751 2018 c-49 -14 -99 -50 -129 -95 -37 -53 -43 -152 -14 -210 23
-44 80 -99 119 -114 13 -5 53 -9 88 -9 84 0 147 40 188 119 35 70 35 121 1
189 -29 59 -70 94 -133 117 -49 17 -71 18 -120 3z"/>
<path d="M3306 2014 c-86 -31 -136 -94 -151 -189 -5 -29 -1 -56 14 -96 35 -92
103 -139 200 -139 73 0 98 9 146 52 68 59 91 147 63 240 -16 53 -92 122 -152
137 -56 14 -71 13 -120 -5z"/>
<path d="M2520 1693 c-85 -35 -150 -128 -150 -213 0 -89 64 -176 153 -209 48
-18 110 -13 165 15 152 76 163 289 19 381 -33 21 -56 28 -107 30 -36 1 -72 0
-80 -4z"/>
</g>
</svg>
